<svg width="70" height="70" viewBox="0 0 70 70" fill="none" xmlns="http://www.w3.org/2000/svg">
<rect x="5.88057" y="8.03392" width="53.4597" height="53.5594" rx="4" fill="black"/>
<path d="M17.6923 37.6194C17.7349 37.7766 17.7881 37.985 17.8518 38.2445C17.9201 38.4961 17.998 38.7956 18.0856 39.1432C18.1731 39.4908 18.2522 39.8069 18.3227 40.0916C18.3995 40.3746 18.4677 40.6261 18.5275 40.8462L18.8654 41.9798C18.8517 42.0038 18.8041 42.0269 18.7225 42.0492C18.6409 42.0714 18.5975 42.0731 18.5924 42.0542C18.5771 41.9976 18.5472 41.9247 18.5027 41.8355C18.452 41.748 18.3999 41.6677 18.3463 41.5945C18.2911 41.515 18.242 41.4709 18.1993 41.4623C18.1183 41.4371 17.8173 41.4955 17.2964 41.6374L13.7377 42.6067C13.5557 42.6562 13.3973 42.7061 13.2627 42.7563C13.1263 42.8002 13.0207 42.8459 12.946 42.8932C12.9117 42.9161 12.8909 42.9758 12.8834 43.0724C12.8742 43.1627 12.8738 43.2607 12.8823 43.3664C12.889 43.4659 12.9001 43.5439 12.9155 43.6005C12.9223 43.6257 12.888 43.6485 12.8127 43.669C12.7311 43.6912 12.6744 43.6932 12.6424 43.6749C12.6044 43.5097 12.5637 43.335 12.5205 43.1509C12.4693 42.9623 12.4147 42.7611 12.3567 42.5473C12.3174 42.4026 12.2614 42.2085 12.1886 41.965C12.1157 41.7215 12.0261 41.4285 11.9197 41.086C11.8116 40.7373 11.7194 40.4349 11.6432 40.1788C11.5652 39.9163 11.5024 39.6971 11.4546 39.521C11.539 39.4845 11.6406 39.4366 11.7593 39.3772C11.8717 39.3196 11.995 39.2523 12.1291 39.1752C12.2712 39.1028 12.3868 39.0443 12.4758 38.9998C12.5631 38.949 12.6248 38.9153 12.6607 38.8987C12.7006 38.9216 12.7317 38.974 12.7539 39.0557C12.776 39.1375 12.766 39.1875 12.7238 39.2057C12.4042 39.3941 12.2204 39.586 12.1723 39.7814C12.1179 39.9785 12.1309 40.2249 12.2111 40.5204L12.3826 41.1524C12.531 41.6995 12.6469 41.9651 12.7302 41.9491C12.8089 41.9412 12.9159 41.9256 13.0511 41.9023C13.1846 41.8726 13.3455 41.8322 13.5338 41.7809L15.0402 41.3706C15.0778 41.3604 15.06 41.22 14.9866 40.9496L14.8509 40.4497C14.7929 40.2359 14.7536 40.0913 14.7332 40.0158C14.7064 39.942 14.6825 39.8912 14.6614 39.8631C14.6386 39.8288 14.601 39.7648 14.5486 39.671C14.519 39.6115 14.434 39.584 14.2937 39.5885C14.1454 39.5884 14.0239 39.5877 13.9292 39.5865C13.8835 39.5922 13.8488 39.551 13.8249 39.4629C13.8044 39.3875 13.8056 39.3298 13.8284 39.2898L15.6078 38.8051C15.6397 38.8234 15.6659 38.8703 15.6864 38.9458C15.7086 39.0275 15.6971 39.0847 15.652 39.1172C15.571 39.1663 15.5016 39.2088 15.444 39.2448C15.3863 39.2807 15.3373 39.311 15.2967 39.3355C15.2174 39.3909 15.174 39.4297 15.1666 39.452C15.1574 39.468 15.1454 39.4983 15.1306 39.5429C15.1042 39.6446 15.1696 39.9847 15.3266 40.5632C15.4494 41.016 15.5391 41.2347 15.5956 41.2193L17.0549 40.8218C17.4628 40.7107 17.7407 40.6046 17.8885 40.5036C17.9462 40.4676 17.9195 40.2453 17.8086 39.8365L17.6858 39.3838C17.5288 38.8052 17.3679 38.4236 17.2032 38.2389C17.1274 38.1582 16.9894 38.0844 16.7892 38.0173C16.5811 37.9457 16.3483 37.9078 16.0911 37.9036C16.05 37.9013 16.0192 37.8624 15.9987 37.7869C15.9663 37.6674 15.9638 37.5837 15.9912 37.5357C16.0466 37.5409 16.1336 37.551 16.2522 37.5659C16.3629 37.5763 16.4767 37.5858 16.5936 37.5945C16.7105 37.6032 16.8101 37.6098 16.8922 37.6145C17.0154 37.6214 17.1552 37.6273 17.3115 37.632C17.4678 37.6367 17.5947 37.6325 17.6923 37.6194Z" fill="white"/>
<path d="M18.0534 32.8867C17.9478 33.6549 17.641 34.2144 17.1331 34.5653C16.6253 34.9162 15.8687 35.0222 14.8635 34.8835L12.6695 34.5807C12.4697 34.5531 12.2981 34.536 12.1545 34.5293C12.0055 34.5153 11.8873 34.5155 11.7999 34.5297C11.7595 34.5373 11.7206 34.5813 11.6833 34.6616C11.6396 34.7411 11.6013 34.8279 11.5687 34.9221C11.5361 35.0162 11.5157 35.0924 11.5077 35.1505C11.5042 35.1763 11.4605 35.1834 11.3768 35.1719C11.2994 35.1612 11.2497 35.1412 11.2275 35.1118L11.4356 33.9565C11.4427 33.9048 11.4559 33.785 11.4752 33.5969C11.488 33.4079 11.5102 33.1511 11.5417 32.8266C11.595 32.8208 11.641 32.8206 11.6797 32.8259C11.7763 32.8392 11.8229 32.8588 11.8193 32.8846C11.814 32.9234 11.8176 32.9929 11.83 33.0933C11.836 33.1928 11.8494 33.2867 11.8701 33.3751C11.8843 33.4626 11.9066 33.515 11.9371 33.5324C12.1482 33.6207 12.4438 33.6911 12.824 33.7436L14.9794 34.0411C15.7075 34.1416 16.3087 34.0667 16.7831 33.8164C17.2574 33.5662 17.5336 33.157 17.6117 32.5889C17.7635 31.485 17.1145 30.8331 15.6647 30.6329L13.2483 30.2994C12.8424 30.2434 12.5558 30.2269 12.3885 30.2498C12.348 30.2574 12.3046 30.3106 12.2582 30.4094C12.2118 30.5083 12.1709 30.6145 12.1356 30.728C12.0938 30.8406 12.069 30.926 12.061 30.9841C12.0574 31.0099 12.017 31.0175 11.9397 31.0068C11.8688 30.997 11.8222 30.9774 11.8 30.9481C11.808 30.89 11.8278 30.794 11.8593 30.6602C11.8844 30.5256 11.914 30.3817 11.9482 30.2285C11.9768 30.068 11.9991 29.9297 12.0151 29.8135C12.0382 29.6456 12.0578 29.4313 12.074 29.1704C12.0893 28.916 12.1 28.7662 12.1063 28.721C12.1596 28.7152 12.2088 28.7154 12.2539 28.7216C12.3312 28.7323 12.3681 28.7505 12.3646 28.7764C12.3592 28.8151 12.361 28.8976 12.3699 29.0238C12.3788 29.15 12.3919 29.2702 12.409 29.3844C12.427 29.4921 12.4512 29.5546 12.4817 29.572C12.5812 29.612 12.7042 29.6488 12.8506 29.6821C12.9971 29.7155 13.1702 29.746 13.3699 29.7735L15.7186 30.0977C16.3823 30.1893 16.8978 30.3558 17.2651 30.5973C17.626 30.8379 17.8654 31.1505 17.9832 31.5351C18.101 31.9197 18.1244 32.3702 18.0534 32.8867Z" fill="white"/>
<path d="M22.0551 24.5486C21.9991 24.6365 21.8784 24.6868 21.6928 24.6995L15.1327 25.0041L18.6448 27.2496C19.0176 27.488 19.2849 27.6318 19.4464 27.681C19.4754 27.684 19.5325 27.6549 19.6179 27.5935C19.7013 27.5231 19.7855 27.4455 19.8704 27.3607C19.9498 27.2723 20 27.2117 20.021 27.1787C20.0315 27.1622 20.0696 27.175 20.1354 27.2171C20.2047 27.2537 20.2496 27.2862 20.27 27.3147C20.0841 27.5824 19.9377 27.7941 19.8307 27.9499C19.7218 28.0967 19.6533 28.192 19.6254 28.236L19.0629 29.2098C19.036 29.2157 18.9896 29.1977 18.9238 29.1556C18.847 29.1065 18.8139 29.0738 18.8244 29.0573C18.8594 29.0024 18.9002 28.9202 18.9467 28.8108C18.9877 28.6979 19.0225 28.5888 19.0511 28.4833C19.0742 28.3744 19.0728 28.304 19.0469 28.2719C18.9503 28.1329 18.71 27.9406 18.3262 27.6952L15.0938 25.6286C14.8141 25.4498 14.5963 25.3375 14.4402 25.2918C14.4003 25.2818 14.3414 25.3137 14.2634 25.3876C14.1835 25.4524 14.1039 25.529 14.0244 25.6174C13.945 25.7057 13.8878 25.7774 13.8528 25.8323C13.8388 25.8543 13.7962 25.8425 13.7249 25.7969C13.6591 25.7548 13.6222 25.7158 13.6143 25.6798C13.7562 25.4691 13.8737 25.2968 13.9666 25.163C14.0576 25.0202 14.1241 24.9158 14.1661 24.8499C14.257 24.7071 14.3375 24.5808 14.4075 24.4709C14.472 24.3575 14.526 24.2607 14.5695 24.1803C14.8224 24.1951 15.433 24.1874 16.4014 24.1572C17.3677 24.118 18.6936 24.0536 20.3789 23.9639C20.2962 23.8878 20.189 23.8077 20.0574 23.7235L17.4994 22.0881C17.154 21.8672 16.9005 21.7322 16.7389 21.683C16.699 21.673 16.6373 21.7031 16.5539 21.7735C16.4705 21.8438 16.3891 21.9232 16.3097 22.0115C16.2248 22.0964 16.1666 22.1635 16.1351 22.213C16.1211 22.2349 16.0812 22.2249 16.0154 22.1828C15.9551 22.1443 15.921 22.107 15.913 22.071C15.9445 22.0215 16.0025 21.9427 16.0869 21.8343C16.1659 21.7225 16.2528 21.6041 16.3478 21.4793C16.4407 21.3455 16.5187 21.2292 16.5817 21.1303C16.6726 20.9875 16.7799 20.801 16.9034 20.5707C17.0234 20.346 17.0956 20.2144 17.1201 20.1759C17.171 20.193 17.2156 20.2138 17.254 20.2383C17.3198 20.2804 17.3457 20.3124 17.3317 20.3344C17.3107 20.3674 17.2779 20.443 17.2334 20.5614C17.1888 20.6798 17.1505 20.7945 17.1185 20.9054C17.0899 21.0108 17.0858 21.0777 17.1063 21.1063C17.18 21.1843 17.2764 21.2692 17.3955 21.3608C17.5147 21.4524 17.6592 21.5525 17.8292 21.6612L20.9547 23.6595C21.2947 23.8769 21.6837 24.114 22.1219 24.371C22.1299 24.407 22.1076 24.4662 22.0551 24.5486Z" fill="white"/>
<path d="M23.4028 23.4152C23.3669 23.4074 23.3295 23.3733 23.2908 23.313C23.2416 23.2363 23.2279 23.1909 23.2497 23.1768C23.299 23.1451 23.3611 23.0973 23.4361 23.0334C23.5076 22.9641 23.5701 22.8928 23.6236 22.8196C23.6771 22.7463 23.7005 22.6925 23.6939 22.658C23.6665 22.5672 23.6168 22.4598 23.5448 22.3357C23.4784 22.208 23.3906 22.0593 23.2815 21.8894L21.2332 18.6997C21.1241 18.5298 21.0253 18.388 20.937 18.2745C20.8506 18.152 20.7735 18.0622 20.7059 18.005C20.6739 17.9792 20.6152 17.9782 20.53 18.0021C20.4413 18.0206 20.3507 18.048 20.2581 18.0844C20.1655 18.1209 20.0946 18.155 20.0453 18.1867C20.0235 18.2008 19.9896 18.1722 19.9439 18.101C19.9017 18.0352 19.8844 17.9843 19.8922 17.9483C19.9415 17.9165 20.027 17.8691 20.1489 17.8061C20.2728 17.734 20.4066 17.6594 20.5504 17.5822C20.6907 17.4995 20.81 17.4265 20.9085 17.363C21.0835 17.2502 21.255 17.1319 21.423 17.0081C21.5875 16.8789 21.7227 16.7762 21.8285 16.7002C21.8536 16.7151 21.8862 16.7599 21.9265 16.8347C21.9687 16.9005 21.9816 16.9386 21.9652 16.9492C21.9324 16.9704 21.882 17.0184 21.814 17.0932C21.7426 17.1625 21.6801 17.2338 21.6265 17.307C21.5695 17.3748 21.5443 17.4259 21.551 17.4603C21.6214 17.6784 21.7605 17.9491 21.9681 18.2725L22.7547 19.4974L22.7869 19.5115C23.0585 19.3442 23.2999 19.1963 23.5113 19.0678C23.7191 18.9338 23.8969 18.8193 24.0446 18.7241C24.2032 18.6218 24.3837 18.5055 24.5861 18.375C24.785 18.2391 25.0057 18.0891 25.2483 17.925C25.2522 17.9069 25.2507 17.8925 25.2436 17.8815L24.4412 16.6319C24.3321 16.462 24.2334 16.3203 24.145 16.2068C24.0586 16.0843 23.9816 15.9944 23.9139 15.9373C23.8819 15.9114 23.8233 15.9105 23.7381 15.9344C23.6494 15.9528 23.5587 15.9803 23.4661 16.0167C23.3735 16.0531 23.3026 16.0872 23.2534 16.119C23.2315 16.1331 23.1977 16.1045 23.1519 16.0332C23.1097 15.9675 23.0925 15.9166 23.1003 15.8805C23.144 15.8523 23.2296 15.8049 23.357 15.7383C23.4808 15.6663 23.6146 15.5916 23.7584 15.5145C23.9042 15.4283 24.0263 15.3534 24.1247 15.29C24.2997 15.1772 24.4685 15.0606 24.631 14.9404C24.79 14.8146 24.9225 14.7138 25.0284 14.6378C25.0675 14.6746 25.0993 14.7122 25.124 14.7505C25.1732 14.8273 25.1869 14.8727 25.165 14.8868C25.1322 14.9079 25.0818 14.9559 25.0139 15.0307C24.9424 15.1 24.8799 15.1713 24.8264 15.2446C24.7693 15.3123 24.7442 15.3634 24.7508 15.3979C24.7852 15.4997 24.8375 15.6171 24.9075 15.7502C24.9775 15.8833 25.067 16.0348 25.1761 16.2047L27.1822 19.3287C27.2913 19.4986 27.3918 19.643 27.4837 19.762C27.5755 19.881 27.6606 19.9773 27.7388 20.0509C27.7638 20.0658 27.8206 20.064 27.9093 20.0456C27.9981 20.0271 28.0887 19.9997 28.1813 19.9633C28.2739 19.9268 28.3366 19.898 28.3694 19.8769C28.3913 19.8628 28.4287 19.8968 28.4815 19.979C28.5026 20.0119 28.5217 20.0538 28.5389 20.1047C28.2584 20.27 28.0371 20.4011 27.8749 20.4978C27.7148 20.5856 27.6155 20.6418 27.5772 20.6665L26.6109 21.3475C26.5749 21.3396 26.534 21.3001 26.4883 21.2289C26.4461 21.1631 26.4359 21.1232 26.4578 21.109C26.507 21.0773 26.5691 21.0295 26.6441 20.9657C26.7156 20.8964 26.7781 20.8251 26.8316 20.7518C26.8851 20.6786 26.9085 20.6248 26.9019 20.5903C26.8745 20.4995 26.8248 20.392 26.7529 20.2679C26.6864 20.1403 26.5986 19.9915 26.4895 19.8216L25.5604 18.3748L25.5228 18.3524C25.2622 18.5127 25.0308 18.658 24.8284 18.7884C24.6225 18.9134 24.4457 19.0235 24.298 19.1187C23.4556 19.6616 23.0433 19.9468 23.0609 19.9742L23.9742 21.3964C24.1783 21.7143 24.3665 21.9533 24.5389 22.1133C24.564 22.1282 24.6208 22.1264 24.7095 22.108C24.7982 22.0896 24.8889 22.0621 24.9815 22.0257C25.0741 21.9893 25.1368 21.9605 25.1696 21.9393C25.186 21.9287 25.2154 21.9563 25.2576 22.0221C25.3053 22.0843 25.3325 22.1327 25.3391 22.1671C25.0586 22.3325 24.8373 22.4635 24.6751 22.5603C24.5095 22.6515 24.4048 22.7113 24.361 22.7395L23.4028 23.4152Z" fill="white"/>
<path d="M31.2341 19.8444C31.2044 19.8226 31.1845 19.7796 31.1745 19.7152C31.1614 19.6315 31.1678 19.5876 31.1935 19.5836C31.2449 19.5756 31.3141 19.5548 31.401 19.5215C31.4944 19.4871 31.5771 19.4477 31.6492 19.4035C31.7268 19.3518 31.7694 19.3088 31.7773 19.2746C31.7869 19.1676 31.7861 19.0358 31.7749 18.8792C31.7636 18.7227 31.7419 18.5414 31.7098 18.3354L31.5216 17.1282C31.5075 17.038 31.412 16.8683 31.2348 16.619C31.1441 16.5013 30.9705 16.2745 30.714 15.9387C30.4576 15.6029 30.1161 15.165 29.6896 14.6249C29.5567 14.4479 29.4558 14.3284 29.3869 14.2667C29.3234 14.1975 29.2348 14.1355 29.1209 14.0807C29.0422 14.0403 28.9286 14.0086 28.7802 13.9857C28.6318 13.9627 28.5255 13.9563 28.4612 13.9663C28.4355 13.9704 28.4171 13.937 28.4061 13.8661C28.394 13.7889 28.3989 13.7353 28.4205 13.7056L28.9456 13.6531C29.0687 13.6404 29.1822 13.6293 29.286 13.6196C29.3962 13.6089 29.4964 13.5966 29.5863 13.5825C29.6634 13.5704 30.0846 13.4847 30.8497 13.3254C30.8666 13.3492 30.8778 13.4002 30.8834 13.4784C30.8945 13.5493 30.8904 13.5862 30.8711 13.5892C30.7618 13.6063 30.641 13.6549 30.5087 13.7349C30.3818 13.8076 30.3268 13.8986 30.3439 14.0081C30.3539 14.0725 30.4043 14.1635 30.4951 14.2812L31.894 16.1597C31.9375 16.1859 31.9687 16.1744 31.9873 16.1253C32.6555 14.6686 32.9716 13.8244 32.9354 13.5926C32.9244 13.5218 32.8491 13.461 32.7095 13.4103C32.5699 13.3596 32.407 13.3488 32.2206 13.378C32.1949 13.382 32.176 13.3454 32.164 13.2681C32.1529 13.1973 32.1583 13.147 32.1799 13.1172L33.3264 12.9972C33.4303 12.9875 33.5331 12.9714 33.6349 12.9489C33.7357 12.9199 33.837 12.8942 33.9388 12.8717C34.1479 12.8192 34.2813 12.7884 34.3392 12.7793C34.3601 12.8288 34.374 12.8761 34.3811 12.9212C34.3931 12.9984 34.3863 13.0391 34.3606 13.0431C34.3092 13.0511 34.2308 13.0766 34.1256 13.1194C34.0204 13.1623 33.9166 13.2148 33.8144 13.277C33.7186 13.3381 33.6528 13.4012 33.6168 13.4662C33.5445 13.6358 33.453 13.8513 33.3424 14.1126C33.2307 14.3676 33.1156 14.6428 32.9971 14.9384C32.8776 15.2275 32.7663 15.5054 32.663 15.7722C32.5588 16.0326 32.4747 16.2535 32.4109 16.435C32.347 16.6164 32.3181 16.7265 32.3241 16.7651L32.553 18.2331C32.5841 18.4327 32.6176 18.6055 32.6536 18.7516C32.6895 18.8977 32.7284 19.0202 32.7701 19.1192C32.787 19.143 32.837 19.1681 32.9201 19.1947C33.0087 19.2138 33.1 19.2292 33.194 19.2409C33.2869 19.2461 33.3527 19.2457 33.3913 19.2397C33.417 19.2356 33.4363 19.2755 33.4494 19.3592C33.4554 19.3978 33.456 19.4439 33.4512 19.4974C33.1279 19.5348 32.8757 19.5644 32.6948 19.5861C32.5129 19.6014 32.4026 19.612 32.3641 19.6181L31.2341 19.8444Z" fill="white"/>
<path d="M40.518 20.6624C40.3598 20.6248 40.1517 20.572 39.8937 20.5039C39.6406 20.4437 39.3407 20.3691 38.9941 20.28C38.6476 20.1908 38.3326 20.1093 38.0493 20.0352C37.7645 19.9675 37.5114 19.9073 37.2899 19.8546L36.1344 19.61C36.12 19.5864 36.1225 19.5335 36.142 19.451C36.1615 19.3686 36.1808 19.3297 36.1998 19.3342C36.2567 19.3477 36.3349 19.3563 36.4344 19.3598C36.5353 19.357 36.6307 19.3496 36.7205 19.3375C36.8166 19.3268 36.8786 19.3047 36.9066 19.2712C36.9675 19.212 37.0602 18.9193 37.1849 18.3931L38.0365 14.7982C38.0801 14.6143 38.1121 14.4512 38.1324 14.3087C38.1592 14.1677 38.1696 14.053 38.1638 13.9645C38.1602 13.9235 38.1178 13.8766 38.0367 13.8238C37.962 13.7725 37.8762 13.7254 37.7794 13.6823C37.689 13.6407 37.6153 13.6131 37.5584 13.5995C37.5331 13.5935 37.5294 13.5525 37.5474 13.4764C37.567 13.394 37.5924 13.3431 37.6237 13.3238C37.7868 13.3692 37.9593 13.4169 38.1413 13.4669C38.3312 13.5121 38.5337 13.5602 38.7489 13.6114C38.8944 13.646 39.0914 13.6895 39.3397 13.7418C39.588 13.7942 39.8877 13.8554 40.2388 13.9255C40.5962 13.9971 40.9054 14.0606 41.1664 14.116C41.4337 14.1728 41.656 14.2223 41.8332 14.2645C41.8248 14.3562 41.8183 14.4685 41.8135 14.6013C41.8103 14.7278 41.8104 14.8685 41.8138 15.0234C41.8094 15.183 41.8055 15.3127 41.8019 15.4123C41.8047 15.5134 41.8048 15.5838 41.8021 15.6233C41.7629 15.6475 41.7022 15.6498 41.6199 15.6302C41.5377 15.6107 41.4986 15.5779 41.5028 15.5321C41.4905 15.1608 41.4101 14.9073 41.2618 14.7715C41.115 14.6295 40.8928 14.523 40.5954 14.4523L39.9593 14.3011C39.4087 14.1701 39.1205 14.1451 39.0946 14.2261C39.064 14.2991 39.0265 14.4007 38.9823 14.5309C38.9444 14.6625 38.903 14.8234 38.8579 15.0136L38.4974 16.5353C38.4884 16.5733 38.62 16.6247 38.8921 16.6894L39.3952 16.809C39.6104 16.8602 39.756 16.8948 39.8319 16.9129C39.9094 16.9246 39.9654 16.9279 40.0001 16.9227C40.0411 16.9191 40.1152 16.9166 40.2224 16.9153C40.2887 16.9177 40.3535 16.8561 40.4167 16.7304C40.4877 16.6 40.5464 16.4934 40.5927 16.4106C40.6095 16.3678 40.6623 16.3569 40.7509 16.3779C40.8268 16.396 40.8769 16.4246 40.901 16.4639L40.4752 18.2613C40.4438 18.2806 40.3902 18.2813 40.3143 18.2632C40.232 18.2436 40.1874 18.2062 40.1804 18.151C40.1761 18.0562 40.172 17.9749 40.168 17.907C40.164 17.839 40.161 17.7814 40.1588 17.734C40.1482 17.6377 40.1349 17.581 40.119 17.5638C40.1093 17.5481 40.0885 17.523 40.0565 17.4887C39.9799 17.4169 39.6505 17.3117 39.0683 17.1733C38.6126 17.0649 38.378 17.0393 38.3645 17.0964L38.0153 18.5704C37.9176 18.9825 37.8778 19.2778 37.8957 19.4562C37.8997 19.5241 38.1073 19.607 38.5187 19.7048L38.9744 19.8131C39.5566 19.9516 39.9681 19.9925 40.2088 19.9359C40.3157 19.9077 40.4464 19.8216 40.6009 19.6775C40.7632 19.5286 40.9077 19.342 41.0344 19.1176C41.0561 19.0826 41.1049 19.0741 41.1808 19.0921C41.3011 19.1207 41.3757 19.1586 41.4046 19.2056C41.3736 19.2518 41.3232 19.3236 41.2534 19.4208C41.1914 19.5132 41.1286 19.6088 41.0651 19.7075C41.0016 19.8063 40.9482 19.8907 40.9049 19.9608C40.8398 20.0659 40.7679 20.1861 40.6891 20.3213C40.6102 20.4566 40.5532 20.5703 40.518 20.6624Z" fill="white"/>
<path d="M41.4816 23.1086C41.4595 23.0949 41.4342 23.0489 41.4059 22.9704C41.3831 22.8953 41.3819 22.8411 41.4023 22.8078C41.4125 22.7911 41.465 22.7737 41.56 22.7555C41.655 22.7374 41.7713 22.7093 41.9088 22.6714C42.043 22.6391 42.1796 22.5777 42.3187 22.4873C42.4544 22.4025 42.5698 22.2822 42.6649 22.1266C42.726 22.0265 42.7675 21.8649 42.7896 21.6415C42.815 21.4127 42.843 21.2732 42.8735 21.2232C42.9482 21.1009 43.072 21.0355 43.245 21.027C43.4214 21.0129 43.5873 21.0535 43.7426 21.1487C43.8259 21.1998 43.8856 21.2517 43.922 21.3045C43.9296 21.4544 43.857 21.6543 43.7043 21.9044C43.487 22.2601 43.1862 22.5341 42.8019 22.7263C42.4176 22.9184 41.9803 23.0476 41.49 23.1137L41.4816 23.1086Z" fill="white"/>
<path d="M48.9471 29.113C48.7833 28.7944 48.7168 28.4585 48.7475 28.1055C48.7782 27.7525 48.8906 27.4233 49.0848 27.1178C49.2877 26.8152 49.5627 26.5744 49.9096 26.3954C50.3144 26.1866 50.7029 26.0814 51.0752 26.0799C51.4476 26.0784 51.7788 26.1677 52.0689 26.3479C52.3648 26.5251 52.5962 26.7759 52.763 27.1004C52.8999 27.3669 52.9685 27.6284 52.9687 27.8848C52.9746 28.1383 52.9278 28.3604 52.8283 28.551C52.72 28.7388 52.5939 28.8992 52.45 29.032C52.3149 29.1677 52.1664 29.2773 52.0045 29.3609C51.8888 29.4205 51.8076 29.4404 51.7609 29.4206C51.7199 29.3978 51.674 29.3371 51.6234 29.2386L50.4977 27.0486C50.4739 27.0022 50.4475 26.9865 50.4186 27.0014C50.1758 27.1267 49.9669 27.2968 49.792 27.5116C49.6229 27.7235 49.5152 27.9623 49.4689 28.2281C49.4226 28.4939 49.471 28.7658 49.6139 29.0439C49.739 29.2872 49.8779 29.4721 50.0307 29.5985C50.1922 29.7278 50.3213 29.8151 50.4178 29.8606L50.4924 29.8991C50.5103 29.9338 50.4817 29.9706 50.4065 30.0094C50.366 30.0303 50.305 30.0398 50.2236 30.0378C50.0021 30.0055 49.7668 29.9106 49.5177 29.7533C49.2743 29.593 49.0841 29.3795 48.9471 29.113ZM50.862 26.8606L51.7331 28.5553C51.748 28.5843 51.7843 28.5838 51.8422 28.554C51.9694 28.4884 52.0903 28.382 52.2049 28.2349C52.3282 28.0906 52.4135 27.922 52.4607 27.7291C52.5078 27.5362 52.4793 27.3383 52.375 27.1356C52.2797 26.9502 52.1342 26.8237 51.9385 26.756C51.7486 26.6854 51.5548 26.6571 51.3572 26.6711C51.1653 26.6822 51.0116 26.7175 50.8959 26.7772C50.8554 26.7981 50.8441 26.8259 50.862 26.8606Z" fill="white"/>
<path d="M50.4504 35.2443C50.4436 35.1926 50.4918 35.16 50.595 35.1464L51.0883 35.0814C51.1206 35.0772 51.1359 35.0686 51.1342 35.0557C50.6204 34.6895 50.3359 34.2965 50.2808 33.8765C50.241 33.5728 50.2963 33.3191 50.4467 33.1153C50.6043 32.917 50.8135 32.7613 51.0742 32.6481C51.3422 32.5406 51.6245 32.4672 51.9211 32.4282L53.14 32.2677C53.385 32.2354 53.5532 32.1673 53.6445 32.0632C53.7134 31.9884 53.7549 31.9041 53.7688 31.8103C53.7836 31.7229 53.7863 31.6437 53.777 31.5726C53.7749 31.5071 53.7804 31.4735 53.7933 31.4718C53.948 31.4515 54.0312 31.4602 54.0427 31.4982C54.1392 31.8338 54.2204 32.1024 54.2862 32.3041C54.3593 32.5114 54.4012 32.6307 54.4119 32.6622L54.4857 32.8496C54.4955 32.8746 54.4719 32.8942 54.4147 32.9083C54.3575 32.9224 54.3156 32.9279 54.2889 32.9249C53.9743 32.9268 53.7331 32.9389 53.5655 32.961L52.2596 33.1329C51.763 33.1983 51.4052 33.321 51.1861 33.501C50.9734 33.6802 50.8891 33.9377 50.9332 34.2737C50.9501 34.4029 51.0021 34.5242 51.0892 34.6377C51.1771 34.7575 51.2745 34.8499 51.3814 34.9147C51.4956 34.9851 51.5881 35.0156 51.6591 35.0063L53.468 34.7681C53.713 34.7358 53.8812 34.6677 53.9725 34.5637C54.0414 34.4889 54.0828 34.4045 54.0968 34.3107C54.1116 34.2233 54.1175 34.1436 54.1146 34.0717C54.1126 34.0063 54.1148 33.9731 54.1213 33.9723C54.276 33.9519 54.3592 33.9606 54.3707 33.9986C54.4672 34.3342 54.5426 34.5839 54.5969 34.7476C54.652 34.9178 54.6993 35.0529 54.7386 35.1529L54.8137 35.3501C54.8235 35.3751 54.7999 35.3946 54.7427 35.4087C54.6855 35.4228 54.6436 35.4283 54.6169 35.4253C54.3023 35.4273 54.0676 35.4384 53.9128 35.4588L51.9782 35.7135C51.688 35.7517 51.4459 35.8066 51.2519 35.8782C51.19 35.9061 51.1548 35.9633 51.1465 36.0498C51.1446 36.1355 51.1444 36.2341 51.1459 36.3456L51.1528 36.4729C51.1489 36.4931 51.1147 36.5075 51.0502 36.516C51.0309 36.5185 50.9973 36.5131 50.9497 36.4996C50.9093 36.4918 50.8878 36.4782 50.8853 36.4588C50.8469 36.2667 50.7835 36.0582 50.6949 35.8332C50.6128 35.6074 50.5416 35.4393 50.4812 35.329L50.4504 35.2443Z" fill="white"/>
<path d="M50.4073 38.1012C50.4388 38.0822 50.4956 38.0828 50.5777 38.1032C50.6535 38.122 50.6882 38.1441 50.682 38.1694C50.6695 38.22 50.6617 38.2919 50.6587 38.3852C50.6558 38.4784 50.6607 38.5669 50.6735 38.6507C50.6863 38.7344 50.7045 38.7826 50.7282 38.7952C50.8103 38.8424 50.9074 38.8833 51.0195 38.9178C51.13 38.9587 51.2484 38.9948 51.3747 39.0262L53.1646 39.4706C53.4045 39.5302 53.5859 39.5282 53.7089 39.4648C53.8003 39.4203 53.8695 39.357 53.9167 39.2747C53.9623 39.1988 53.9937 39.126 54.0109 39.0564C54.0329 38.9947 54.0502 38.9655 54.0628 38.9686C54.2143 39.0062 54.2885 39.0448 54.2855 39.0843C54.2531 39.4321 54.23 39.715 54.2162 39.9331C54.2088 40.1528 54.2051 40.2896 54.2052 40.3433L54.2055 40.5045C54.2056 40.5314 54.1764 40.5409 54.118 40.5331C54.0597 40.5253 54.0186 40.5151 53.9949 40.5025C53.9097 40.468 53.8363 40.4397 53.7747 40.4176C53.7131 40.3956 53.6634 40.3799 53.6255 40.3705C53.6003 40.3643 53.5861 40.3675 53.5829 40.3801C53.5814 40.3864 53.5853 40.3975 53.5948 40.4133C53.7104 40.5964 53.8039 40.8277 53.8755 41.1073C53.9518 41.3948 53.9618 41.6524 53.9055 41.8801C53.7959 42.3228 53.5614 42.5935 53.2019 42.6923C52.8424 42.791 52.3091 42.7525 51.602 42.577L50.7402 42.363C50.5571 42.3175 50.3946 42.2838 50.2525 42.262C50.1105 42.2402 49.9859 42.2294 49.8786 42.2296C49.8502 42.2359 49.8108 42.2732 49.7605 42.3412C49.7102 42.4093 49.6646 42.4852 49.6237 42.5691C49.5829 42.6529 49.5577 42.7138 49.5484 42.7518C49.5437 42.7708 49.5027 42.774 49.4253 42.7615C49.348 42.749 49.2951 42.7325 49.2667 42.712L49.5652 41.7087L49.7642 40.7007C49.7958 40.6817 49.8526 40.6824 49.9346 40.7028C50.0104 40.7216 50.0451 40.7436 50.0389 40.7689C50.0264 40.8195 50.0194 40.8883 50.018 40.9752C50.0166 41.0621 50.0231 41.1443 50.0374 41.2217C50.0518 41.2991 50.0708 41.3441 50.0945 41.3567C50.1766 41.404 50.2738 41.4449 50.3858 41.4794C50.4963 41.5203 50.6147 41.5564 50.741 41.5878L51.688 41.8229C52.2752 41.9687 52.6949 41.9924 52.9471 41.8939C53.1993 41.7954 53.3677 41.5753 53.4522 41.2338C53.485 41.101 53.48 40.9588 53.4371 40.8071C53.4005 40.657 53.3458 40.526 53.273 40.4139C53.2002 40.3019 53.1228 40.2356 53.0407 40.2153L51.3739 39.8014C51.1908 39.7559 51.0283 39.7223 50.8862 39.7004C50.7442 39.6786 50.6196 39.6678 50.5123 39.668C50.4839 39.6744 50.4445 39.7116 50.3942 39.7796C50.3439 39.8477 50.2983 39.9237 50.2574 40.0075C50.2166 40.0913 50.1914 40.1522 50.1821 40.1902C50.1774 40.2092 50.1364 40.2124 50.059 40.1999C49.9817 40.1874 49.9288 40.171 49.9004 40.1505L50.1989 39.1471L50.4073 38.1012Z" fill="white"/>
<path d="M48.5574 43.8147C48.5937 43.8085 48.6463 43.8299 48.7153 43.8789C48.779 43.9241 48.8033 43.9573 48.7883 43.9786C48.7582 44.0211 48.7248 44.0853 48.688 44.171C48.6513 44.2567 48.6236 44.3409 48.605 44.4235C48.5864 44.5062 48.5859 44.5577 48.6034 44.5781C48.7203 44.717 48.8902 44.8657 49.1131 45.0239L52.568 47.4771C52.7484 47.6052 52.9295 47.7099 53.1113 47.791C53.2113 47.8301 53.3496 47.7246 53.5264 47.4748L53.5772 47.403C53.5997 47.3711 53.6402 47.3759 53.6986 47.4173C53.7835 47.4776 53.8147 47.5237 53.7921 47.5556C53.6268 47.8456 53.5076 48.1043 53.4343 48.3319C53.3664 48.5632 53.3265 48.7265 53.3148 48.822L53.3105 48.8789L53.2992 48.8948C53.2841 48.9161 53.2532 48.926 53.2063 48.9247C53.1647 48.9271 53.1288 48.9216 53.0985 48.908C52.9647 48.7252 52.7545 48.532 52.468 48.3286L50.7246 47.0907C50.7034 47.0756 50.689 47.0734 50.6815 47.084C50.6777 47.0893 50.6774 47.101 50.6805 47.1192C50.709 47.2593 50.7198 47.4187 50.7129 47.5975C50.7075 47.7854 50.6806 47.9699 50.6322 48.1511C50.589 48.3361 50.5223 48.4924 50.432 48.62C50.18 48.9762 49.8721 49.1409 49.5083 49.1142C49.1445 49.0875 48.6973 48.8857 48.1666 48.5089L47.3069 47.8984C47.1583 47.7929 47.0218 47.704 46.8976 47.6318C46.7733 47.5595 46.6612 47.5038 46.5612 47.4648C46.5325 47.4604 46.4823 47.4806 46.4106 47.5256C46.3389 47.5705 46.2688 47.6246 46.2002 47.6877C46.1317 47.7508 46.0861 47.7983 46.0635 47.8302C46.0522 47.8462 46.0129 47.8342 45.9454 47.7943C45.878 47.7544 45.8348 47.7197 45.8157 47.6902L46.4592 46.8652L47.0117 45.9996C47.048 45.9935 47.1006 46.0149 47.1696 46.0638C47.2333 46.1091 47.2576 46.1423 47.2425 46.1636C47.2125 46.2061 47.1809 46.2676 47.148 46.348C47.115 46.4284 47.0911 46.5073 47.0763 46.5846C47.0614 46.6619 47.0627 46.7108 47.0802 46.7312C47.1395 46.8052 47.215 46.8788 47.3067 46.9519C47.3947 47.0304 47.4918 47.1073 47.598 47.1827L48.4418 47.7818C48.7708 48.0155 49.0436 48.1652 49.2601 48.2311C49.4819 48.3007 49.6705 48.2989 49.826 48.2256C49.9815 48.1523 50.1269 48.02 50.2623 47.8286C50.3376 47.7223 50.3828 47.5907 50.3981 47.4339C50.4149 47.2861 50.4099 47.1467 50.3829 47.0158C50.356 46.8848 50.3107 46.7967 50.247 46.7515L48.838 45.751C48.6841 45.6417 48.545 45.5509 48.4207 45.4787C48.2964 45.4064 48.1843 45.3508 48.0844 45.3117C48.0556 45.3073 48.0054 45.3275 47.9337 45.3725C47.8621 45.4174 47.7919 45.4715 47.7234 45.5346C47.6548 45.5977 47.6092 45.6452 47.5867 45.6771C47.5754 45.6931 47.536 45.6811 47.4686 45.6412C47.4011 45.6013 47.3579 45.5666 47.3389 45.5371L47.9823 44.7121L48.5574 43.8147Z" fill="white"/>
<path d="M42.6334 47.2657C42.7465 47.189 42.8537 47.1675 42.955 47.2011C43.0562 47.2347 43.1306 47.2866 43.1779 47.3568C43.2545 47.4701 43.2751 47.5821 43.2398 47.6926C42.7928 47.9957 42.6533 48.4286 42.8214 48.9914C42.8491 49.0906 42.8825 49.2097 42.9213 49.3486C42.9602 49.4875 42.9925 49.5993 43.0184 49.6841L46.0878 51.7341C46.1585 51.7806 46.2219 51.8163 46.278 51.8413C46.3377 51.8716 46.3902 51.8911 46.4353 51.8998C46.5166 51.9155 46.6194 51.9049 46.7436 51.8679C46.8624 51.8345 46.9514 51.7977 47.0107 51.7576C47.0322 51.743 47.0667 51.7707 47.1141 51.8409C47.1579 51.9057 47.1763 51.9561 47.1693 51.9923C47.0202 52.0855 46.872 52.1742 46.7247 52.2584C46.5756 52.3516 46.4256 52.4493 46.2748 52.5516C46.1025 52.6685 45.9562 52.7716 45.8359 52.861C45.7193 52.9558 45.6117 53.0406 45.513 53.1154C45.473 53.0795 45.4403 53.0427 45.4148 53.0049C45.3638 52.9293 45.349 52.8843 45.3706 52.8696C45.3921 52.855 45.427 52.8196 45.4753 52.7632C45.5183 52.7105 45.5575 52.6524 45.5932 52.5889C45.6325 52.5307 45.6465 52.4818 45.6354 52.4422L45.6245 52.426C45.5625 52.3342 44.7986 51.8253 43.3327 50.8992L43.9163 53.0885C43.9515 53.222 43.9891 53.3184 44.0292 53.3778C44.0839 53.4587 44.1708 53.4943 44.2898 53.4844C44.407 53.4836 44.5357 53.4357 44.6757 53.3408C44.6973 53.3262 44.7317 53.3539 44.7791 53.4241C44.8229 53.4889 44.8413 53.5394 44.8343 53.5755C44.7606 53.6176 44.6501 53.6808 44.5028 53.7649C44.3555 53.8491 44.2172 53.935 44.0879 54.0226C43.9694 54.103 43.8438 54.196 43.711 54.3018C43.5783 54.4075 43.4787 54.4868 43.4123 54.5397C43.3724 54.5039 43.3396 54.467 43.3141 54.4292C43.2631 54.3537 43.2483 54.3086 43.2699 54.294C43.3399 54.2465 43.4178 54.1583 43.5034 54.0294C43.5891 53.9005 43.6171 53.7674 43.5872 53.6303L42.3921 48.7395C42.2899 48.3209 42.2732 47.9939 42.3419 47.7584C42.407 47.5176 42.5041 47.3533 42.6334 47.2657Z" fill="white"/>
<path d="M37.6882 51.8755C38.0335 51.7818 38.3752 51.787 38.7133 51.8911C39.0514 51.9951 39.3491 52.1743 39.6065 52.4285C39.8593 52.6908 40.0368 53.0106 40.1388 53.388C40.2578 53.8283 40.279 54.231 40.2025 54.5961C40.126 54.9611 39.9694 55.2669 39.7328 55.5134C39.4979 55.7662 39.2047 55.9403 38.8531 56.0356C38.5643 56.114 38.2948 56.1264 38.0444 56.0728C37.7958 56.0254 37.5889 55.933 37.4237 55.7956C37.2631 55.6501 37.133 55.493 37.0335 55.3242C36.9294 55.1634 36.8535 54.9949 36.8059 54.8188C36.7719 54.693 36.7695 54.6093 36.7987 54.5676C36.8295 54.5322 36.8983 54.5001 37.005 54.4711L39.3781 53.8273C39.4284 53.8136 39.4492 53.7911 39.4407 53.7596C39.3693 53.4955 39.2471 53.2552 39.0741 53.0388C38.9027 52.8288 38.6922 52.6732 38.4425 52.5722C38.1929 52.4711 37.9173 52.4615 37.616 52.5432C37.3523 52.6148 37.1428 52.7121 36.9874 52.8353C36.8275 52.9665 36.7152 53.0746 36.6506 53.1596L36.5974 53.2247C36.5597 53.2349 36.5298 53.1991 36.5077 53.1173C36.4958 53.0733 36.4994 53.0116 36.5183 52.9322C36.5963 52.722 36.7381 52.5114 36.9439 52.3003C37.1513 52.0954 37.3994 51.9539 37.6882 51.8755ZM39.4853 54.2235L37.6489 54.7218C37.6175 54.7303 37.6103 54.766 37.6273 54.8289C37.6648 54.9673 37.7432 55.108 37.8628 55.2511C37.9777 55.4022 38.1244 55.5211 38.3028 55.6077C38.4812 55.6943 38.6803 55.7078 38.9 55.6482C39.1009 55.5937 39.2548 55.4777 39.3618 55.3001C39.4705 55.1288 39.5387 54.9449 39.5665 54.7484C39.5959 54.5581 39.5936 54.4001 39.5596 54.2743C39.5477 54.2302 39.5229 54.2133 39.4853 54.2235Z" fill="white"/>
<path d="M29.0652 53.6013C29.2158 53.6426 29.3329 53.7321 29.4167 53.87C29.4941 54.0061 29.5122 54.1495 29.471 54.3004C29.4298 54.4512 29.3413 54.5654 29.2054 54.643C29.0678 54.7269 28.9206 54.7473 28.7638 54.7043C28.6007 54.6595 28.4844 54.5668 28.4149 54.4262C28.3437 54.2918 28.3288 54.1492 28.37 53.9984C28.4112 53.8475 28.4997 53.7333 28.6356 53.6557C28.7714 53.5781 28.9146 53.56 29.0652 53.6013Z" fill="white"/>
</svg>
