<svg width="131" height="131" viewBox="0 0 131 131" fill="none" xmlns="http://www.w3.org/2000/svg">
<rect x="11" y="15" width="100" height="100" rx="4" fill="black"/>
<path d="M29.9864 73.4325C30.0462 73.6524 30.1207 73.9438 30.2099 74.3068C30.3056 74.6586 30.4148 75.0776 30.5375 75.5637C30.6602 76.0499 30.771 76.492 30.8698 76.8902C30.9774 77.286 31.073 77.6378 31.1567 77.9456L31.6303 79.5312C31.6111 79.5648 31.5443 79.5971 31.43 79.6282C31.3156 79.6593 31.2549 79.6616 31.2477 79.6352C31.2262 79.5561 31.1843 79.4541 31.122 79.3294C31.051 79.207 30.9779 79.0946 30.9029 78.9923C30.8254 78.8811 30.7567 78.8195 30.6968 78.8074C30.5833 78.7722 30.1615 78.8538 29.4315 79.0522L24.4446 80.4081C24.1895 80.4774 23.9676 80.5472 23.7789 80.6174C23.5878 80.6788 23.4399 80.7426 23.3351 80.8089C23.2871 80.8408 23.2579 80.9243 23.2474 81.0594C23.2345 81.1857 23.234 81.3228 23.2458 81.4707C23.2553 81.6098 23.2708 81.7189 23.2923 81.7981C23.3019 81.8333 23.2539 81.8652 23.1484 81.8939C23.034 81.925 22.9545 81.9277 22.9097 81.9021C22.8564 81.671 22.7994 81.4268 22.7389 81.1693C22.6671 80.9055 22.5906 80.624 22.5093 80.325C22.4543 80.1227 22.3758 79.8512 22.2737 79.5106C22.1717 79.17 22.0461 78.7602 21.897 78.2812C21.7455 77.7935 21.6163 77.3705 21.5095 77.0123C21.4003 76.6452 21.3122 76.3386 21.2452 76.0923C21.3636 76.0413 21.5059 75.9742 21.6723 75.8912C21.8298 75.8106 22.0025 75.7164 22.1905 75.6086C22.3896 75.5073 22.5516 75.4255 22.6763 75.3632C22.7987 75.2922 22.8851 75.2451 22.9354 75.2219C22.9914 75.254 23.0349 75.3271 23.066 75.4415C23.0971 75.5558 23.083 75.6257 23.0238 75.6513C22.576 75.9147 22.3183 76.1831 22.251 76.4565C22.1748 76.7322 22.1929 77.0768 22.3053 77.4901L22.5456 78.3741C22.7537 79.1393 22.916 79.5107 23.0328 79.4884C23.1431 79.4773 23.293 79.4555 23.4825 79.4228C23.6696 79.3814 23.8951 79.3248 24.1589 79.2531L26.2698 78.6792C26.3226 78.6649 26.2975 78.4686 26.1947 78.0904L26.0046 77.3912C25.9233 77.0921 25.8683 76.8898 25.8396 76.7843C25.8021 76.6811 25.7686 76.6099 25.7391 76.5708C25.7071 76.5228 25.6544 76.4332 25.581 76.302C25.5395 76.2189 25.4204 76.1804 25.2238 76.1866C25.0159 76.1865 24.8456 76.1855 24.7129 76.1838C24.649 76.1918 24.6003 76.1342 24.5668 76.011C24.5381 75.9055 24.5398 75.8248 24.5718 75.7688L27.0653 75.0909C27.11 75.1165 27.1467 75.1821 27.1754 75.2877C27.2065 75.402 27.1904 75.4819 27.1273 75.5274C27.0137 75.5961 26.9165 75.6556 26.8357 75.7059C26.755 75.7562 26.6862 75.7985 26.6294 75.8328C26.5182 75.9103 26.4574 75.9646 26.447 75.9957C26.4342 76.0181 26.4174 76.0605 26.3965 76.1228C26.3596 76.2651 26.4512 76.7408 26.6712 77.55C26.8434 78.1832 26.969 78.4891 27.0482 78.4676L29.0931 77.9116C29.6648 77.7562 30.0542 77.6078 30.2614 77.4665C30.3422 77.4162 30.3048 77.1052 30.1494 76.5335L29.9772 75.9002C29.7572 75.0911 29.5318 74.5573 29.301 74.2989C29.1948 74.1861 29.0014 74.0828 28.7209 73.9891C28.4292 73.8889 28.1031 73.8359 27.7426 73.83C27.685 73.8268 27.6419 73.7724 27.6132 73.6668C27.5677 73.4997 27.5642 73.3826 27.6027 73.3155C27.6802 73.3227 27.8021 73.3368 27.9684 73.3577C28.1234 73.3722 28.2829 73.3856 28.4468 73.3977C28.6106 73.4098 28.7501 73.4191 28.8652 73.4256C29.0379 73.4353 29.2337 73.4435 29.4528 73.45C29.6718 73.4566 29.8497 73.4508 29.9864 73.4325Z" fill="white"/>
<path d="M29.7624 62.5044C29.6144 63.5789 29.1845 64.3616 28.4729 64.8524C27.7612 65.3432 26.7011 65.4915 25.2925 65.2975L22.218 64.8739C21.9381 64.8354 21.6976 64.8114 21.4965 64.8021C21.2875 64.7825 21.1219 64.7827 20.9996 64.8027C20.9429 64.8133 20.8884 64.8748 20.8361 64.9872C20.7748 65.0983 20.7213 65.2198 20.6755 65.3515C20.6298 65.4832 20.6013 65.5897 20.5901 65.6709C20.5851 65.707 20.524 65.717 20.4066 65.7009C20.2982 65.6859 20.2285 65.6579 20.1973 65.6168L20.489 64.0009C20.4989 63.9286 20.5174 63.761 20.5445 63.4979C20.5625 63.2335 20.5936 62.8744 20.6377 62.4204C20.7124 62.4123 20.7769 62.412 20.831 62.4195C20.9665 62.4381 21.0317 62.4655 21.0267 62.5016C21.0193 62.5558 21.0243 62.6531 21.0417 62.7935C21.0502 62.9327 21.0689 63.0641 21.0978 63.1877C21.1178 63.31 21.1491 63.3834 21.1917 63.4076C21.4875 63.5312 21.9018 63.6297 22.4345 63.7031L25.4548 64.1192C26.4751 64.2597 27.3176 64.155 27.9823 63.8049C28.647 63.4549 29.0341 62.8825 29.1435 62.088C29.3562 60.544 28.4468 59.632 26.4152 59.3521L23.0292 58.8856C22.4604 58.8073 22.0587 58.7841 21.8243 58.8162C21.7676 58.8268 21.7068 58.9013 21.6417 59.0395C21.5767 59.1778 21.5194 59.3263 21.4699 59.4851C21.4114 59.6426 21.3766 59.762 21.3654 59.8433C21.3604 59.8794 21.3037 59.89 21.1954 59.8751C21.0961 59.8614 21.0308 59.834 20.9997 59.7929C21.0109 59.7117 21.0386 59.5775 21.0827 59.3903C21.1179 59.202 21.1594 59.0007 21.2073 58.7865C21.2475 58.562 21.2787 58.3685 21.3011 58.2059C21.3335 57.9712 21.361 57.6713 21.3836 57.3064C21.4051 56.9506 21.4201 56.741 21.4288 56.6778C21.5036 56.6697 21.5725 56.67 21.6357 56.6787C21.7441 56.6936 21.7958 56.7192 21.7908 56.7553C21.7833 56.8095 21.7858 56.9248 21.7983 57.1013C21.8108 57.2779 21.829 57.446 21.853 57.6057C21.8783 57.7564 21.9122 57.8439 21.9549 57.8682C22.0944 57.9242 22.2667 57.9755 22.4719 58.0222C22.6771 58.0689 22.9197 58.1115 23.1996 58.1501L26.4907 58.6035C27.4208 58.7316 28.1431 58.9645 28.6578 59.3023C29.1635 59.6387 29.4989 60.076 29.664 60.614C29.8291 61.1519 29.8619 61.7821 29.7624 62.5044Z" fill="white"/>
<path d="M36.563 46.0433C36.4845 46.1662 36.3153 46.2366 36.0552 46.2544L26.8628 46.681L31.784 49.8215C32.3064 50.1549 32.6809 50.356 32.9073 50.4248C32.9478 50.4291 33.0279 50.3883 33.1475 50.3025C33.2644 50.204 33.3823 50.0955 33.5013 49.9768C33.6126 49.8532 33.683 49.7684 33.7124 49.7223C33.7271 49.6992 33.7806 49.7171 33.8728 49.776C33.9699 49.8271 34.0328 49.8726 34.0614 49.9125C33.8008 50.2869 33.5956 50.583 33.4458 50.8009C33.2931 51.0063 33.1972 51.1396 33.1579 51.2011L32.3698 52.5633C32.332 52.5716 32.267 52.5464 32.1748 52.4875C32.0672 52.4189 32.0208 52.373 32.0355 52.35C32.0846 52.2731 32.1417 52.1582 32.2069 52.0052C32.2644 51.8473 32.3132 51.6946 32.3532 51.5472C32.3856 51.3948 32.3836 51.2962 32.3473 51.2515C32.2119 51.0569 31.8753 50.7881 31.3375 50.4449L26.8082 47.5544C26.4163 47.3043 26.111 47.1474 25.8923 47.0835C25.8364 47.0694 25.7539 47.114 25.6447 47.2174C25.5327 47.3081 25.4211 47.4153 25.3098 47.5389C25.1985 47.6624 25.1183 47.7627 25.0692 47.8395C25.0496 47.8702 24.9899 47.8537 24.89 47.79C24.7978 47.7311 24.7461 47.6765 24.735 47.6262C24.9339 47.3315 25.0985 47.0905 25.2288 46.9033C25.3563 46.7035 25.4494 46.5576 25.5083 46.4654C25.6357 46.2656 25.7485 46.0889 25.8466 45.9352C25.937 45.7766 26.0126 45.6411 26.0736 45.5286C26.428 45.5494 27.2837 45.5386 28.6406 45.4963C29.9947 45.4414 31.8526 45.3511 34.2142 45.2255C34.0983 45.1191 33.9481 45.0071 33.7637 44.8894L30.1794 42.602C29.6954 42.2931 29.3401 42.1043 29.1137 42.0355C29.0578 42.0214 28.9714 42.0636 28.8546 42.162C28.7377 42.2605 28.6236 42.3715 28.5123 42.4951C28.3933 42.6137 28.3117 42.7077 28.2676 42.7768C28.248 42.8075 28.1921 42.7935 28.0999 42.7347C28.0154 42.6807 27.9676 42.6286 27.9564 42.5782C28.0006 42.5091 28.0818 42.3987 28.2001 42.2472C28.3108 42.0907 28.4326 41.9252 28.5657 41.7506C28.6959 41.5635 28.8052 41.4007 28.8935 41.2624C29.0209 41.0626 29.1712 40.8017 29.3443 40.4797C29.5125 40.1653 29.6137 39.9813 29.6481 39.9275C29.7193 39.9513 29.7819 39.9804 29.8356 40.0147C29.9278 40.0736 29.9641 40.1184 29.9445 40.1491C29.9151 40.1952 29.8692 40.3011 29.8067 40.4667C29.7443 40.6322 29.6906 40.7926 29.6457 40.9477C29.6057 41.0952 29.6 41.1889 29.6286 41.2287C29.7319 41.3379 29.867 41.4566 30.0339 41.5847C30.2008 41.7129 30.4034 41.8529 30.6416 42.0049L35.0211 44.7998C35.4974 45.1038 36.0426 45.4355 36.6566 45.7949C36.6678 45.8452 36.6365 45.928 36.563 46.0433Z" fill="white"/>
<path d="M41.5404 40.5977C41.4901 40.5868 41.4377 40.5391 41.3835 40.4548C41.3145 40.3475 41.2953 40.284 41.3259 40.2643C41.3949 40.2199 41.482 40.153 41.5871 40.0637C41.6873 39.9668 41.7749 39.8671 41.8498 39.7646C41.9248 39.6622 41.9577 39.5869 41.9483 39.5387C41.91 39.4116 41.8404 39.2613 41.7395 39.0878C41.6464 38.9093 41.5234 38.7012 41.3705 38.4636L38.5004 34.0024C38.3475 33.7648 38.2091 33.5666 38.0853 33.4078C37.9642 33.2364 37.8563 33.1108 37.7615 33.0309C37.7166 32.9947 37.6345 32.9934 37.5151 33.0268C37.3908 33.0526 37.2638 33.091 37.134 33.142C37.0042 33.193 36.9048 33.2406 36.8358 33.285C36.8052 33.3047 36.7578 33.2648 36.6937 33.1651C36.6345 33.0732 36.6104 33.002 36.6213 32.9516C36.6903 32.9072 36.8102 32.8409 36.9811 32.7527C37.1546 32.6518 37.3421 32.5474 37.5436 32.4395C37.7402 32.3239 37.9075 32.2217 38.0455 32.1329C38.2907 31.9751 38.5311 31.8096 38.7665 31.6365C38.997 31.4557 39.1865 31.3121 39.3348 31.2058C39.3699 31.2266 39.4156 31.2893 39.4721 31.3939C39.5313 31.4859 39.5493 31.5393 39.5263 31.5541C39.4804 31.5837 39.4097 31.6508 39.3145 31.7554C39.2143 31.8524 39.1267 31.9521 39.0517 32.0545C38.9718 32.1493 38.9365 32.2208 38.9458 32.269C39.0445 32.574 39.2393 32.9526 39.5303 33.4048L40.6325 35.118L40.6776 35.1377C41.0582 34.9037 41.3965 34.6969 41.6928 34.5172C41.984 34.3298 42.2332 34.1695 42.4401 34.0363C42.6624 33.8933 42.9154 33.7306 43.199 33.5481C43.4777 33.358 43.787 33.1482 44.127 32.9186C44.1325 32.8934 44.1303 32.8731 44.1204 32.8578L42.9961 31.1101C42.8432 30.8725 42.7048 30.6743 42.581 30.5155C42.4599 30.3441 42.352 30.2185 42.2572 30.1386C42.2123 30.1024 42.1302 30.1011 42.0108 30.1345C41.8865 30.1603 41.7594 30.1987 41.6297 30.2497C41.4999 30.3007 41.4005 30.3483 41.3315 30.3927C41.3009 30.4124 41.2535 30.3725 41.1894 30.2728C41.1302 30.1809 41.1061 30.1097 41.117 30.0593C41.1783 30.0198 41.2982 29.9535 41.4767 29.8604C41.6503 29.7595 41.8378 29.6551 42.0393 29.5472C42.2436 29.4266 42.4147 29.322 42.5526 29.2332C42.7979 29.0754 43.0344 28.9124 43.2622 28.7442C43.485 28.5683 43.6706 28.4272 43.819 28.3209C43.8738 28.3724 43.9184 28.425 43.953 28.4786C44.022 28.5859 44.0412 28.6495 44.0105 28.6692C43.9645 28.6988 43.8939 28.7659 43.7987 28.8705C43.6985 28.9675 43.6109 29.0672 43.5359 29.1696C43.456 29.2644 43.4207 29.3359 43.43 29.3841C43.4782 29.5264 43.5514 29.6907 43.6495 29.8769C43.7476 30.063 43.8731 30.2749 44.026 30.5125L46.8369 34.8817C46.9898 35.1194 47.1306 35.3214 47.2593 35.4878C47.3881 35.6543 47.5072 35.789 47.6168 35.8919C47.6519 35.9127 47.7315 35.9102 47.8559 35.8844C47.9802 35.8586 48.1072 35.8202 48.237 35.7693C48.3667 35.7183 48.4546 35.678 48.5006 35.6484C48.5313 35.6287 48.5836 35.6763 48.6576 35.7913C48.6872 35.8373 48.714 35.8959 48.7381 35.9671C48.345 36.1983 48.0348 36.3816 47.8076 36.5169C47.5831 36.6397 47.444 36.7183 47.3904 36.7528L46.0361 37.7054C45.9857 37.6945 45.9285 37.6392 45.8644 37.5395C45.8052 37.4475 45.7909 37.3917 45.8216 37.372C45.8906 37.3276 45.9776 37.2607 46.0828 37.1714C46.1829 37.0745 46.2705 36.9748 46.3455 36.8723C46.4205 36.7699 46.4533 36.6946 46.444 36.6464C46.4056 36.5193 46.336 36.369 46.2352 36.1955C46.1421 36.017 46.019 35.8089 45.8662 35.5713L44.5643 33.5477L44.5117 33.5165C44.1465 33.7406 43.8221 33.9439 43.5385 34.1263C43.2499 34.3011 43.0021 34.4551 42.7952 34.5882C41.6147 35.3477 41.0368 35.7466 41.0615 35.7849L42.3412 37.774C42.6272 38.2186 42.891 38.5529 43.1326 38.7768C43.1677 38.7976 43.2474 38.7951 43.3717 38.7693C43.496 38.7435 43.623 38.7051 43.7528 38.6542C43.8826 38.6032 43.9704 38.5629 44.0164 38.5333C44.0394 38.5185 44.0805 38.5571 44.1397 38.6491C44.2065 38.7361 44.2446 38.8038 44.2539 38.852C43.8608 39.0832 43.5506 39.2665 43.3234 39.4018C43.0913 39.5295 42.9445 39.6131 42.8832 39.6525L41.5404 40.5977Z" fill="white"/>
<path d="M56.8976 33.4099C56.856 33.3795 56.8281 33.3193 56.8141 33.2292C56.7958 33.1122 56.8046 33.0508 56.8407 33.0452C56.9127 33.0339 57.0096 33.0049 57.1315 32.9582C57.2624 32.9101 57.3783 32.8551 57.4793 32.7932C57.588 32.7209 57.6478 32.6608 57.6587 32.613C57.6723 32.4633 57.6711 32.2789 57.6554 32.06C57.6396 31.841 57.6093 31.5875 57.5642 31.2993L57.3005 29.6108C57.2808 29.4847 57.1469 29.2473 56.8987 28.8987C56.7715 28.734 56.5282 28.4169 56.1688 27.9472C55.8095 27.4775 55.331 26.8649 54.7333 26.1096C54.547 25.8619 54.4056 25.6949 54.3091 25.6085C54.2201 25.5117 54.0959 25.425 53.9363 25.3485C53.826 25.2919 53.6669 25.2476 53.4589 25.2155C53.251 25.1834 53.102 25.1744 53.0119 25.1884C52.9759 25.1941 52.9501 25.1474 52.9347 25.0483C52.9178 24.9402 52.9245 24.8654 52.9549 24.8237L53.6907 24.7503C53.8632 24.7326 54.0222 24.717 54.1677 24.7035C54.3222 24.6886 54.4625 24.6713 54.5886 24.6516C54.6966 24.6347 55.2868 24.5148 56.359 24.292C56.3826 24.3252 56.3984 24.3965 56.4062 24.506C56.4217 24.6051 56.4159 24.6567 56.3889 24.6609C56.2358 24.6848 56.0666 24.7528 55.8811 24.8648C55.7032 24.9664 55.6263 25.0937 55.6502 25.2468C55.6642 25.3369 55.7349 25.4642 55.8621 25.6288L57.8223 28.2562C57.8834 28.2928 57.927 28.2768 57.9532 28.2081C58.8895 26.1707 59.3324 24.9899 59.2817 24.6657C59.2663 24.5666 59.1607 24.4816 58.9652 24.4107C58.7696 24.3398 58.5412 24.3247 58.28 24.3655C58.244 24.3712 58.2176 24.3199 58.2007 24.2119C58.1852 24.1128 58.1927 24.0425 58.2231 24.0008L59.8297 23.8329C59.9752 23.8194 60.1193 23.7969 60.2619 23.7654C60.4032 23.7248 60.5452 23.6888 60.6879 23.6573C60.9808 23.5839 61.1678 23.5408 61.2489 23.5282C61.2781 23.5974 61.2977 23.6635 61.3075 23.7266C61.3244 23.8346 61.3149 23.8915 61.2788 23.8971C61.2068 23.9084 61.097 23.9439 60.9496 24.0039C60.8021 24.0638 60.6568 24.1373 60.5135 24.2242C60.3793 24.3098 60.287 24.398 60.2366 24.4889C60.1353 24.7261 60.0071 25.0275 59.852 25.393C59.6955 25.7496 59.5342 26.1346 59.3682 26.548C59.2007 26.9523 59.0447 27.3411 58.9 27.7143C58.7539 28.0784 58.6361 28.3874 58.5466 28.6412C58.4571 28.8951 58.4166 29.049 58.4251 29.103L58.7458 31.1563C58.7894 31.4354 58.8364 31.6772 58.8867 31.8815C58.9371 32.0858 58.9916 32.2572 59.0501 32.3956C59.0737 32.4288 59.1438 32.464 59.2603 32.5012C59.3844 32.5279 59.5123 32.5494 59.644 32.5658C59.7743 32.5731 59.8665 32.5725 59.9205 32.5641C59.9565 32.5585 59.9837 32.6142 60.002 32.7313C60.0104 32.7853 60.0112 32.8497 60.0045 32.9246C59.5514 32.9769 59.1981 33.0183 58.9445 33.0487C58.6896 33.07 58.5351 33.0849 58.481 33.0934L56.8976 33.4099Z" fill="white"/>
<path d="M74.4725 34.3216C74.2508 34.269 73.9592 34.1951 73.5977 34.0999C73.243 34.0157 72.8228 33.9113 72.3372 33.7867C71.8515 33.662 71.4102 33.5479 71.0132 33.4443C70.6142 33.3496 70.2594 33.2654 69.9491 33.1917L68.33 32.8496C68.3097 32.8167 68.3132 32.7426 68.3406 32.6273C68.368 32.512 68.395 32.4575 68.4216 32.4638C68.5014 32.4828 68.611 32.4947 68.7503 32.4997C68.8917 32.4958 69.0254 32.4854 69.1512 32.4684C69.2859 32.4535 69.3728 32.4226 69.412 32.3757C69.4973 32.2929 69.6272 31.8835 69.8019 31.1474L70.9954 26.1192C71.0564 25.862 71.1013 25.6337 71.1298 25.4344C71.1673 25.2372 71.1819 25.0768 71.1738 24.9531C71.1687 24.8956 71.1093 24.83 70.9957 24.7562C70.891 24.6845 70.7708 24.6185 70.6352 24.5582C70.5085 24.5001 70.4052 24.4615 70.3254 24.4426C70.2899 24.4341 70.2848 24.3767 70.3101 24.2703C70.3375 24.155 70.3731 24.0838 70.417 24.0568C70.6455 24.1204 70.8872 24.1871 71.1423 24.257C71.4083 24.3202 71.6921 24.3875 71.9936 24.4591C72.1976 24.5075 72.4736 24.5683 72.8215 24.6416C73.1695 24.7148 73.5895 24.8004 74.0814 24.8984C74.5823 24.9986 75.0155 25.0874 75.3812 25.1648C75.7558 25.2443 76.0672 25.3136 76.3156 25.3725C76.3038 25.5009 76.2946 25.6579 76.288 25.8437C76.2835 26.0206 76.2836 26.2174 76.2884 26.434C76.2823 26.6574 76.2767 26.8387 76.2717 26.978C76.2756 27.1195 76.2757 27.2179 76.2719 27.2732C76.2171 27.307 76.132 27.3102 76.0167 27.2829C75.9014 27.2555 75.8467 27.2097 75.8526 27.1455C75.8353 26.6262 75.7227 26.2716 75.5149 26.0818C75.3091 25.883 74.9978 25.7342 74.581 25.6353L73.6898 25.4238C72.9182 25.2406 72.5144 25.2057 72.4781 25.3188C72.4351 25.421 72.3827 25.5632 72.3207 25.7452C72.2676 25.9293 72.2095 26.1544 72.1464 26.4204L71.6412 28.5488C71.6286 28.602 71.8129 28.6739 72.1943 28.7644L72.8993 28.9317C73.2008 29.0033 73.4048 29.0517 73.5112 29.077C73.6197 29.0934 73.6983 29.0979 73.7468 29.0907C73.8042 29.0856 73.9081 29.0822 74.0584 29.0804C74.1513 29.0837 74.242 28.9975 74.3306 28.8218C74.4301 28.6393 74.5123 28.4902 74.5773 28.3745C74.6009 28.3145 74.6747 28.2993 74.7989 28.3287C74.9053 28.354 74.9754 28.394 75.0092 28.4489L74.4125 30.963C74.3686 30.9901 74.2935 30.991 74.187 30.9657C74.0718 30.9384 74.0092 30.8861 73.9995 30.8088C73.9935 30.6762 73.9877 30.5624 73.9821 30.4674C73.9766 30.3725 73.9723 30.2918 73.9693 30.2255C73.9544 30.0908 73.9358 30.0115 73.9134 29.9874C73.8999 29.9655 73.8707 29.9305 73.8259 29.8824C73.7186 29.7819 73.257 29.6349 72.4411 29.4413C71.8026 29.2897 71.4739 29.2538 71.4549 29.3337L70.9656 31.3955C70.8287 31.9719 70.7729 32.3849 70.798 32.6344C70.8035 32.7294 71.0945 32.8453 71.6709 32.9822L72.3095 33.1337C73.1253 33.3274 73.7019 33.3846 74.0392 33.3054C74.1891 33.266 74.3722 33.1456 74.5887 32.944C74.8161 32.7357 75.0186 32.4746 75.1962 32.1608C75.2265 32.1118 75.2949 32.0999 75.4013 32.1252C75.5698 32.1652 75.6744 32.2181 75.715 32.2839C75.6715 32.3485 75.6009 32.4489 75.503 32.5849C75.4161 32.7142 75.3282 32.8478 75.2392 32.986C75.1502 33.1241 75.0753 33.2422 75.0146 33.3402C74.9235 33.4872 74.8227 33.6553 74.7122 33.8445C74.6017 34.0338 74.5218 34.1928 74.4725 34.3216Z" fill="white"/>
<path d="M79.7151 39.0922C79.6841 39.0731 79.6487 39.0087 79.609 38.899C79.5771 38.794 79.5754 38.7181 79.6039 38.6715C79.6182 38.6482 79.6919 38.6238 79.825 38.5984C79.9581 38.573 80.121 38.5338 80.3137 38.4807C80.5017 38.4355 80.6932 38.3496 80.8881 38.2231C81.0783 38.1044 81.24 37.9363 81.3732 37.7186C81.4589 37.5786 81.5171 37.3525 81.548 37.0401C81.5836 36.72 81.6229 36.5249 81.6657 36.4549C81.7703 36.2839 81.9439 36.1924 82.1863 36.1805C82.4334 36.1608 82.6659 36.2175 82.8835 36.3507C83.0002 36.4221 83.0839 36.4947 83.1349 36.5686C83.1455 36.7782 83.0438 37.0579 82.8297 37.4078C82.5252 37.9053 82.1037 38.2885 81.5652 38.5574C81.0267 38.8262 80.4139 39.0068 79.7268 39.0993L79.7151 39.0922Z" fill="white"/>
<path d="M94.4772 51.6227C94.2476 51.177 94.1544 50.7073 94.1974 50.2135C94.2405 49.7197 94.3981 49.2593 94.6702 48.8321C94.9546 48.4088 95.3399 48.072 95.826 47.8216C96.3933 47.5295 96.9378 47.3824 97.4595 47.3802C97.9813 47.3781 98.4455 47.503 98.852 47.755C99.2667 48.0028 99.5909 48.3536 99.8246 48.8074C100.017 49.1801 100.113 49.5459 100.113 49.9046C100.121 50.2591 100.055 50.5697 99.916 50.8364C99.7642 51.0991 99.5875 51.3233 99.3859 51.5092C99.1966 51.699 98.9884 51.8523 98.7616 51.9691C98.5995 52.0526 98.4857 52.0804 98.4201 52.0527C98.3627 52.0207 98.2985 51.9359 98.2275 51.7981L96.6502 48.7351C96.6168 48.6703 96.5798 48.6483 96.5393 48.6692C96.199 48.8444 95.9063 49.0823 95.6612 49.3828C95.4242 49.6791 95.2733 50.0132 95.2084 50.3849C95.1435 50.7566 95.2112 51.137 95.4116 51.5259C95.5868 51.8663 95.7815 52.1248 95.9956 52.3017C96.2219 52.4824 96.4027 52.6046 96.538 52.6682L96.6426 52.722C96.6677 52.7706 96.6275 52.822 96.5222 52.8763C96.4654 52.9055 96.38 52.9187 96.2658 52.916C95.9555 52.8708 95.6257 52.7382 95.2766 52.5181C94.9356 52.2939 94.6691 51.9954 94.4772 51.6227ZM97.1607 48.4722L98.3813 50.8424C98.4021 50.8829 98.4531 50.8823 98.5341 50.8406C98.7124 50.7488 98.8818 50.6 99.0424 50.3943C99.2153 50.1925 99.3348 49.9567 99.4009 49.6868C99.467 49.417 99.427 49.1403 99.2809 48.8567C99.1474 48.5974 98.9435 48.4204 98.6693 48.3259C98.4031 48.2271 98.1316 48.1875 97.8546 48.2071C97.5857 48.2226 97.3703 48.272 97.2082 48.3555C97.1515 48.3847 97.1356 48.4236 97.1607 48.4722Z" fill="white"/>
<path d="M97.9749 63.6356C97.9654 63.5633 98.033 63.5177 98.1776 63.4987L98.8689 63.4078C98.9141 63.4019 98.9355 63.3899 98.9331 63.3718C98.2131 62.8597 97.8145 62.3099 97.7373 61.7226C97.6815 61.2978 97.7589 60.9429 97.9697 60.6578C98.1907 60.3806 98.4838 60.1628 98.8491 60.0044C99.2246 59.854 99.6202 59.7514 100.036 59.6968L101.744 59.4723C102.087 59.4272 102.323 59.3319 102.451 59.1864C102.547 59.0817 102.606 58.9638 102.625 58.8325C102.646 58.7103 102.65 58.5995 102.637 58.5001C102.634 58.4085 102.641 58.3615 102.659 58.3592C102.876 58.3307 102.993 58.3429 103.009 58.396C103.144 58.8654 103.258 59.2412 103.35 59.5232C103.453 59.8131 103.511 59.9801 103.526 60.0241L103.63 60.2863C103.643 60.3212 103.61 60.3486 103.53 60.3683C103.45 60.388 103.391 60.3958 103.354 60.3915C102.913 60.3943 102.575 60.4111 102.34 60.442L100.51 60.6825C99.8143 60.7739 99.3129 60.9455 99.0059 61.1973C98.7078 61.4479 98.5897 61.8082 98.6515 62.2781C98.6752 62.4588 98.7481 62.6285 98.8701 62.7872C98.9932 62.9548 99.1297 63.084 99.2795 63.1746C99.4395 63.2731 99.5692 63.3158 99.6687 63.3027L102.203 62.9696C102.547 62.9245 102.783 62.8291 102.911 62.6836C103.007 62.579 103.065 62.4611 103.085 62.3298C103.105 62.2076 103.114 62.0962 103.11 61.9956C103.107 61.904 103.11 61.8576 103.119 61.8564C103.336 61.8279 103.452 61.8402 103.469 61.8932C103.604 62.3627 103.709 62.7119 103.786 62.941C103.863 63.179 103.929 63.368 103.984 63.5078L104.089 63.7836C104.103 63.8185 104.07 63.8459 103.99 63.8656C103.91 63.8853 103.851 63.893 103.814 63.8887C103.373 63.8915 103.044 63.9072 102.827 63.9357L100.116 64.292C99.7092 64.3454 99.3699 64.4222 99.0981 64.5222C99.0113 64.5612 98.962 64.6412 98.9504 64.7623C98.9477 64.8821 98.9475 65.0201 98.9496 65.1761L98.9592 65.3541C98.9537 65.3824 98.9058 65.4025 98.8154 65.4143C98.7883 65.4179 98.7413 65.4103 98.6745 65.3915C98.6179 65.3805 98.5879 65.3615 98.5843 65.3344C98.5306 65.0657 98.4417 64.774 98.3176 64.4593C98.2026 64.1435 98.1027 63.9084 98.0181 63.7541L97.9749 63.6356Z" fill="white"/>
<path d="M98.0478 71.9138C98.092 71.8872 98.1716 71.8881 98.2866 71.9166C98.3927 71.9429 98.4414 71.9738 98.4327 72.0092C98.4151 72.08 98.4043 72.1806 98.4001 72.311C98.396 72.4414 98.4028 72.5652 98.4208 72.6823C98.4387 72.7995 98.4642 72.8668 98.4974 72.8845C98.6125 72.9505 98.7486 73.0077 98.9056 73.0561C99.0605 73.1132 99.2264 73.1637 99.4033 73.2076L101.911 73.8292C102.248 73.9125 102.502 73.9098 102.674 73.821C102.802 73.7589 102.899 73.6702 102.965 73.5552C103.029 73.4489 103.073 73.3471 103.097 73.2498C103.128 73.1636 103.152 73.1226 103.17 73.127C103.382 73.1796 103.486 73.2336 103.482 73.2888C103.437 73.7753 103.404 74.171 103.385 74.4761C103.375 74.7834 103.369 74.9747 103.37 75.0498L103.37 75.2753C103.37 75.3129 103.329 75.3262 103.247 75.3153C103.166 75.3045 103.108 75.2902 103.075 75.2726C102.955 75.2242 102.853 75.1846 102.766 75.1538C102.68 75.1231 102.61 75.1011 102.557 75.0879C102.522 75.0792 102.502 75.0836 102.498 75.1013C102.495 75.1102 102.501 75.1256 102.514 75.1477C102.676 75.4038 102.807 75.7274 102.908 76.1185C103.014 76.5206 103.028 76.8809 102.95 77.1994C102.796 77.8187 102.467 78.1974 101.964 78.3354C101.46 78.4735 100.713 78.4198 99.7218 78.1742L98.5142 77.8749C98.2576 77.8113 98.0298 77.7642 97.8308 77.7337C97.6318 77.7031 97.4571 77.688 97.3068 77.6883C97.267 77.6973 97.2119 77.7493 97.1413 77.8445C97.0708 77.9397 97.0069 78.046 96.9497 78.1632C96.8924 78.2805 96.8572 78.3657 96.8441 78.4188C96.8375 78.4453 96.78 78.4498 96.6717 78.4324C96.5633 78.4149 96.4892 78.3919 96.4494 78.3632L96.8676 76.9597L97.1466 75.5499C97.1908 75.5233 97.2704 75.5242 97.3854 75.5527C97.4915 75.579 97.5402 75.6099 97.5315 75.6453C97.5139 75.716 97.5042 75.8122 97.5022 75.9338C97.5003 76.0554 97.5093 76.1703 97.5294 76.2786C97.5496 76.3869 97.5762 76.4498 97.6094 76.4675C97.7245 76.5335 97.8606 76.5907 98.0176 76.6391C98.1725 76.6962 98.3384 76.7467 98.5153 76.7906L99.8423 77.1195C100.665 77.3234 101.253 77.3565 101.607 77.2187C101.96 77.0809 102.196 76.7732 102.314 76.2954C102.36 76.1096 102.353 75.9107 102.293 75.6986C102.242 75.4887 102.165 75.3054 102.063 75.1486C101.961 74.9919 101.853 74.8993 101.738 74.8708L99.4022 74.2919C99.1457 74.2283 98.9179 74.1812 98.7189 74.1507C98.5198 74.1201 98.3452 74.105 98.1949 74.1053C98.1551 74.1143 98.0999 74.1663 98.0294 74.2615C97.9588 74.3567 97.8949 74.463 97.8377 74.5802C97.7805 74.6975 97.7453 74.7827 97.7321 74.8358C97.7255 74.8623 97.6681 74.8669 97.5597 74.8494C97.4513 74.8319 97.3772 74.8089 97.3374 74.7802L97.7557 73.3767L98.0478 71.9138Z" fill="white"/>
<path d="M94.0164 83.9407C94.0672 83.932 94.1409 83.9619 94.2376 84.0304C94.3268 84.0937 94.3609 84.1402 94.3398 84.1699C94.2977 84.2294 94.2508 84.3191 94.1994 84.439C94.1479 84.559 94.1091 84.6767 94.0831 84.7923C94.057 84.9079 94.0562 84.9799 94.0807 85.0085C94.2446 85.2028 94.4827 85.4107 94.795 85.632L99.636 89.0631C99.8888 89.2423 100.143 89.3886 100.397 89.5021C100.537 89.5567 100.731 89.4092 100.979 89.0597L101.05 88.9593C101.082 88.9147 101.138 88.9214 101.22 88.9794C101.339 89.0637 101.383 89.1282 101.351 89.1728C101.12 89.5784 100.953 89.9403 100.85 90.2586C100.755 90.5821 100.699 90.8106 100.682 90.9442L100.676 91.0237L100.66 91.046C100.639 91.0757 100.596 91.0897 100.53 91.0878C100.472 91.0912 100.422 91.0834 100.379 91.0645C100.192 90.8088 99.8973 90.5386 99.4957 90.254L97.0529 88.5227C97.0232 88.5016 97.003 88.4985 96.9925 88.5134C96.9872 88.5208 96.9868 88.5372 96.9911 88.5626C97.031 88.7585 97.0461 88.9815 97.0365 89.2316C97.029 89.4944 96.9912 89.7525 96.9233 90.006C96.8628 90.2647 96.7693 90.4834 96.6428 90.6618C96.2897 91.1601 95.8582 91.3905 95.3485 91.3532C94.8387 91.3159 94.212 91.0337 93.4683 90.5066L92.2637 89.6528C92.0554 89.5052 91.8643 89.3809 91.6901 89.2798C91.516 89.1788 91.3589 89.1009 91.2188 89.0463C91.1785 89.0401 91.1082 89.0685 91.0078 89.1314C90.9073 89.1942 90.8091 89.2698 90.713 89.3581C90.6169 89.4464 90.553 89.5129 90.5214 89.5575C90.5056 89.5798 90.4504 89.5631 90.3559 89.5073C90.2614 89.4514 90.2008 89.4029 90.1742 89.3617L91.0759 88.2077L91.8502 86.997C91.901 86.9883 91.9748 87.0182 92.0715 87.0867C92.1607 87.15 92.1948 87.1965 92.1737 87.2262C92.1315 87.2857 92.0873 87.3717 92.0411 87.4842C91.9949 87.5967 91.9614 87.707 91.9406 87.8151C91.9198 87.9233 91.9217 87.9916 91.9461 88.0201C92.0292 88.1237 92.135 88.2266 92.2636 88.3289C92.3869 88.4386 92.5229 88.5462 92.6716 88.6516L93.854 89.4896C94.315 89.8164 94.6972 90.0258 95.0006 90.118C95.3114 90.2154 95.5758 90.2128 95.7937 90.1103C96.0116 90.0078 96.2154 89.8226 96.4051 89.5549C96.5105 89.4062 96.5739 89.2221 96.5954 89.0027C96.619 88.796 96.6119 88.6011 96.5742 88.4179C96.5364 88.2348 96.4729 88.1116 96.3837 88.0483L94.4093 86.649C94.1937 86.4962 93.9988 86.3692 93.8247 86.2681C93.6505 86.1671 93.4934 86.0892 93.3534 86.0347C93.3131 86.0285 93.2427 86.0568 93.1423 86.1197C93.0419 86.1826 92.9436 86.2581 92.8475 86.3464C92.7514 86.4347 92.6875 86.5012 92.6559 86.5458C92.6401 86.5681 92.585 86.5514 92.4905 86.4956C92.3959 86.4398 92.3354 86.3912 92.3087 86.35L93.2104 85.196L94.0164 83.9407Z" fill="white"/>
<path d="M82.9275 91.966C83.086 91.8587 83.2362 91.8286 83.3781 91.8757C83.52 91.9227 83.6242 91.9953 83.6906 92.0934C83.7978 92.2519 83.8267 92.4085 83.7773 92.563C83.1507 92.987 82.9553 93.5926 83.1908 94.3797C83.2297 94.5184 83.2763 94.685 83.3308 94.8792C83.3852 95.0735 83.4306 95.2299 83.4668 95.3485L87.7679 98.2156C87.867 98.2806 87.9558 98.3306 88.0344 98.3654C88.1181 98.4078 88.1916 98.4351 88.2549 98.4473C88.3688 98.4693 88.5128 98.4544 88.6869 98.4026C88.8534 98.3559 88.9782 98.3045 89.0612 98.2483C89.0914 98.2279 89.1397 98.2667 89.2061 98.3648C89.2674 98.4554 89.2932 98.526 89.2834 98.5767C89.0745 98.707 88.8668 98.8311 88.6603 98.9488C88.4514 99.0792 88.2413 99.2159 88.0299 99.359C87.7884 99.5224 87.5834 99.6667 87.4149 99.7917C87.2515 99.9243 87.1006 100.043 86.9623 100.148C86.9063 100.097 86.8605 100.046 86.8247 99.993C86.7532 99.8874 86.7325 99.8243 86.7627 99.8039C86.7929 99.7834 86.8419 99.7338 86.9096 99.655C86.9697 99.5812 87.0248 99.4999 87.0747 99.4111C87.1298 99.3298 87.1495 99.2614 87.134 99.2059L87.1186 99.1833C87.0318 99.055 85.9613 98.3432 83.9071 97.048L84.7248 100.11C84.7741 100.297 84.8269 100.432 84.8831 100.515C84.9597 100.628 85.0814 100.678 85.2481 100.664C85.4124 100.663 85.5927 100.596 85.789 100.463C85.8192 100.442 85.8675 100.481 85.9339 100.579C85.9952 100.67 86.021 100.741 86.0112 100.791C85.908 100.85 85.7531 100.938 85.5466 101.056C85.3402 101.174 85.1463 101.294 84.9652 101.417C84.7991 101.529 84.6231 101.659 84.437 101.807C84.251 101.955 84.1115 102.066 84.0184 102.14C83.9625 102.09 83.9166 102.038 83.8808 101.985C83.8093 101.88 83.7887 101.817 83.8189 101.796C83.917 101.73 84.0261 101.606 84.1462 101.426C84.2663 101.246 84.3054 101.06 84.2636 100.868L82.5892 94.0274C82.4461 93.4419 82.4227 92.9845 82.519 92.6552C82.6102 92.3184 82.7463 92.0886 82.9275 91.966Z" fill="white"/>
<path d="M72.5601 100.284C73.044 100.153 73.5228 100.16 73.9966 100.305C74.4704 100.451 74.8876 100.701 75.2483 101.057C75.6026 101.424 75.8512 101.871 75.9941 102.399C76.1609 103.015 76.1907 103.578 76.0834 104.089C75.9762 104.599 75.7568 105.027 75.4252 105.372C75.096 105.725 74.6851 105.969 74.1924 106.102C73.7877 106.212 73.41 106.229 73.0592 106.154C72.7108 106.088 72.4208 105.959 72.1893 105.766C71.9643 105.563 71.782 105.343 71.6425 105.107C71.4966 104.882 71.3903 104.647 71.3236 104.4C71.276 104.224 71.2726 104.107 71.3135 104.049C71.3567 103.999 71.4531 103.954 71.6027 103.914L74.9282 103.013C74.9986 102.994 75.0278 102.963 75.0159 102.919C74.9159 102.549 74.7446 102.213 74.5021 101.911C74.262 101.617 73.967 101.399 73.6171 101.258C73.2673 101.117 72.8812 101.103 72.4589 101.218C72.0894 101.318 71.7958 101.454 71.578 101.626C71.3538 101.809 71.1965 101.961 71.1059 102.08L71.0314 102.171C70.9787 102.185 70.9368 102.135 70.9058 102.021C70.8891 101.959 70.8941 101.873 70.9207 101.762C71.0299 101.468 71.2287 101.173 71.517 100.878C71.8077 100.591 72.1554 100.393 72.5601 100.284ZM75.0783 103.568L72.505 104.265C72.461 104.276 72.4509 104.326 72.4747 104.414C72.5272 104.608 72.6371 104.805 72.8046 105.005C72.9657 105.216 73.1713 105.382 73.4213 105.504C73.6713 105.625 73.9502 105.644 74.2582 105.56C74.5397 105.484 74.7554 105.322 74.9053 105.073C75.0577 104.834 75.1532 104.577 75.1921 104.302C75.2334 104.036 75.2302 103.815 75.1825 103.639C75.1658 103.577 75.1311 103.553 75.0783 103.568Z" fill="white"/>
<path d="M54.076 102.984C54.287 103.042 54.4512 103.167 54.5685 103.36C54.677 103.551 54.7024 103.751 54.6446 103.962C54.5869 104.173 54.4628 104.333 54.2724 104.442C54.0797 104.559 53.8734 104.587 53.6536 104.527C53.425 104.465 53.2621 104.335 53.1648 104.138C53.065 103.95 53.044 103.751 53.1018 103.54C53.1596 103.329 53.2836 103.169 53.474 103.061C53.6644 102.952 53.865 102.927 54.076 102.984Z" fill="white"/>
</svg>
