<svg width="83" height="43" viewBox="0 0 83 43" fill="none" xmlns="http://www.w3.org/2000/svg">
<path d="M14.82 22.31C15.08 22.31 15.28 22.43 15.42 22.67C15.58 22.91 15.66 23.24 15.66 23.66C15.66 24.46 15.47 25.08 15.09 25.52C14.35 26.42 13.3 27.25 11.94 28.01C10.6 28.77 9.16 29.15 7.62 29.15C5.52 29.15 3.89 28.58 2.73 27.44C1.57 26.3 0.99 24.74 0.99 22.76C0.99 21.38 1.28 20.1 1.86 18.92C2.44 17.72 3.24 16.77 4.26 16.07C5.3 15.37 6.47 15.02 7.77 15.02C8.93 15.02 9.86 15.37 10.56 16.07C11.26 16.75 11.61 17.68 11.61 18.86C11.61 20.24 11.11 21.43 10.11 22.43C9.13 23.41 7.46 24.19 5.1 24.77C5.6 25.69 6.55 26.15 7.95 26.15C8.85 26.15 9.87 25.84 11.01 25.22C12.17 24.58 13.17 23.75 14.01 22.73C14.25 22.45 14.52 22.31 14.82 22.31ZM7.26 17.96C6.52 17.96 5.89 18.39 5.37 19.25C4.87 20.11 4.62 21.15 4.62 22.37V22.43C5.8 22.15 6.73 21.73 7.41 21.17C8.09 20.61 8.43 19.96 8.43 19.22C8.43 18.84 8.32 18.54 8.1 18.32C7.9 18.08 7.62 17.96 7.26 17.96ZM16.2773 29.15C15.3773 29.15 14.6373 28.74 14.0573 27.92C13.4973 27.08 13.2173 26.04 13.2173 24.8C13.2173 23.3 13.3173 21.93 13.5173 20.69C13.7173 19.43 14.0473 18.1 14.5073 16.7C14.7073 16.1 14.9873 15.67 15.3473 15.41C15.7073 15.15 16.2773 15.02 17.0573 15.02C17.4973 15.02 17.7973 15.09 17.9573 15.23C18.1373 15.37 18.2273 15.58 18.2273 15.86C18.2273 16.02 18.1173 16.56 17.8973 17.48C17.6973 18.22 17.5373 18.89 17.4173 19.49C17.0173 21.59 16.8173 22.99 16.8173 23.69C16.8173 24.11 16.8673 24.41 16.9673 24.59C17.0673 24.75 17.2273 24.83 17.4473 24.83C17.7473 24.83 18.1173 24.53 18.5573 23.93C19.0173 23.33 19.4973 22.42 19.9973 21.2C20.5173 19.98 21.0173 18.48 21.4973 16.7C21.6573 16.1 21.8973 15.67 22.2173 15.41C22.5573 15.15 23.0573 15.02 23.7173 15.02C24.1773 15.02 24.4973 15.08 24.6773 15.2C24.8573 15.3 24.9473 15.5 24.9473 15.8C24.9473 16.3 24.6973 17.67 24.1973 19.91C23.6373 22.47 23.3573 24.05 23.3573 24.65C23.3573 25.03 23.4373 25.33 23.5973 25.55C23.7573 25.75 23.9673 25.85 24.2273 25.85C24.6273 25.85 25.0973 25.61 25.6373 25.13C26.1973 24.63 26.9373 23.83 27.8573 22.73C28.0973 22.45 28.3673 22.31 28.6673 22.31C28.9273 22.31 29.1273 22.43 29.2673 22.67C29.4273 22.91 29.5073 23.24 29.5073 23.66C29.5073 24.46 29.3173 25.08 28.9373 25.52C28.0773 26.58 27.1473 27.45 26.1473 28.13C25.1673 28.81 24.0473 29.15 22.7873 29.15C21.8273 29.15 21.1173 28.78 20.6573 28.04C20.2173 27.3 19.9973 26.26 19.9973 24.92C19.6573 26.28 19.1473 27.33 18.4673 28.07C17.7873 28.79 17.0573 29.15 16.2773 29.15ZM29.2048 29.15C28.4448 29.15 27.9048 28.75 27.5848 27.95C27.2848 27.15 27.1348 25.87 27.1348 24.11C27.1348 21.51 27.5048 19.04 28.2448 16.7C28.4248 16.12 28.7148 15.7 29.1148 15.44C29.5348 15.16 30.1148 15.02 30.8548 15.02C31.2548 15.02 31.5348 15.07 31.6948 15.17C31.8548 15.27 31.9348 15.46 31.9348 15.74C31.9348 16.06 31.7848 16.78 31.4848 17.9C31.2848 18.7 31.1248 19.4 31.0048 20C30.8848 20.6 30.7848 21.34 30.7048 22.22C31.3648 20.5 32.1048 19.1 32.9248 18.02C33.7448 16.94 34.5448 16.17 35.3248 15.71C36.1248 15.25 36.8548 15.02 37.5148 15.02C38.8148 15.02 39.4648 15.67 39.4648 16.97C39.4648 17.75 39.2448 19.16 38.8048 21.2C38.4248 22.94 38.2348 24.09 38.2348 24.65C38.2348 25.45 38.5248 25.85 39.1048 25.85C39.5048 25.85 39.9748 25.61 40.5148 25.13C41.0748 24.63 41.8148 23.83 42.7348 22.73C42.9748 22.45 43.2448 22.31 43.5448 22.31C43.8048 22.31 44.0048 22.43 44.1448 22.67C44.3048 22.91 44.3848 23.24 44.3848 23.66C44.3848 24.46 44.1948 25.08 43.8148 25.52C42.9548 26.58 42.0248 27.45 41.0248 28.13C40.0448 28.81 38.9248 29.15 37.6648 29.15C36.6448 29.15 35.8748 28.86 35.3548 28.28C34.8348 27.68 34.5748 26.82 34.5748 25.7C34.5748 25.14 34.7148 24.14 34.9948 22.7C35.2548 21.44 35.3848 20.57 35.3848 20.09C35.3848 19.77 35.2748 19.61 35.0548 19.61C34.7948 19.61 34.4248 19.95 33.9448 20.63C33.4848 21.29 33.0048 22.17 32.5048 23.27C32.0248 24.37 31.6348 25.53 31.3348 26.75C31.1148 27.69 30.8548 28.33 30.5548 28.67C30.2748 28.99 29.8248 29.15 29.2048 29.15ZM58.6076 22.31C58.8676 22.31 59.0676 22.43 59.2076 22.67C59.3676 22.91 59.4476 23.24 59.4476 23.66C59.4476 24.46 59.2576 25.08 58.8776 25.52C57.9576 26.58 57.0076 27.45 56.0276 28.13C55.0676 28.81 53.9676 29.15 52.7276 29.15C51.7076 29.15 50.9376 28.86 50.4176 28.28C49.8976 27.68 49.6376 26.82 49.6376 25.7C49.6376 25.14 49.7776 24.14 50.0576 22.7C50.3176 21.44 50.4476 20.57 50.4476 20.09C50.4476 19.77 50.3376 19.61 50.1176 19.61C49.8576 19.61 49.4876 19.95 49.0076 20.63C48.5276 21.29 48.0476 22.17 47.5676 23.27C47.0876 24.37 46.6976 25.53 46.3976 26.75C46.0176 28.35 45.0776 29.15 43.5776 29.15C42.9776 29.15 42.5776 28.94 42.3776 28.52C42.1976 28.08 42.1076 27.3 42.1076 26.18C42.1076 25.54 42.1176 25.03 42.1376 24.65L42.1676 22.25C42.1676 19.17 42.4776 15.96 43.0976 12.62C43.7376 9.28 44.6676 6.48 45.8876 4.22C47.1276 1.94 48.6076 0.799998 50.3276 0.799998C51.2476 0.799998 51.9876 1.2 52.5476 2C53.1276 2.78 53.4176 3.8 53.4176 5.06C53.4176 7.08 52.8276 9.18 51.6476 11.36C50.4676 13.52 48.5476 16.05 45.8876 18.95C45.8276 19.99 45.7976 21.06 45.7976 22.16C46.4576 20.46 47.1876 19.08 47.9876 18.02C48.8076 16.94 49.6076 16.17 50.3876 15.71C51.1876 15.25 51.9176 15.02 52.5776 15.02C53.8776 15.02 54.5276 15.67 54.5276 16.97C54.5276 17.75 54.3076 19.16 53.8676 21.2C53.4876 22.94 53.2976 24.09 53.2976 24.65C53.2976 25.45 53.5876 25.85 54.1676 25.85C54.5676 25.85 55.0376 25.61 55.5776 25.13C56.1376 24.63 56.8776 23.83 57.7976 22.73C58.0376 22.45 58.3076 22.31 58.6076 22.31ZM49.6976 3.77C49.3376 3.77 48.9376 4.29 48.4976 5.33C48.0576 6.35 47.6276 7.74 47.2076 9.5C46.8076 11.24 46.4776 13.14 46.2176 15.2C47.4576 13.74 48.4776 12.15 49.2776 10.43C50.0976 8.71 50.5076 7.15 50.5076 5.75C50.5076 5.11 50.4376 4.62 50.2976 4.28C50.1576 3.94 49.9576 3.77 49.6976 3.77ZM72.3762 22.37C72.6362 22.37 72.8362 22.5 72.9762 22.76C73.1362 23 73.2162 23.31 73.2162 23.69C73.2162 24.15 73.1462 24.51 73.0062 24.77C72.8662 25.03 72.6462 25.26 72.3462 25.46L66.5862 29.33C65.8262 33.47 64.8262 36.72 63.5862 39.08C62.3662 41.46 60.8062 42.65 58.9062 42.65C57.8862 42.65 57.0562 42.33 56.4162 41.69C55.7762 41.07 55.4562 40.25 55.4562 39.23C55.4562 38.29 55.6662 37.33 56.0862 36.35C56.5262 35.37 57.3262 34.24 58.4862 32.96C59.6662 31.7 61.3262 30.25 63.4662 28.61L63.5562 27.92C63.6962 27.18 63.8562 26.12 64.0362 24.74C63.6362 26.18 63.0762 27.28 62.3562 28.04C61.6362 28.78 60.8762 29.15 60.0762 29.15C59.1762 29.15 58.4362 28.74 57.8562 27.92C57.2962 27.08 57.0162 26.04 57.0162 24.8C57.0162 23.3 57.1162 21.93 57.3162 20.69C57.5162 19.43 57.8462 18.1 58.3062 16.7C58.5062 16.1 58.7862 15.67 59.1462 15.41C59.5062 15.15 60.0762 15.02 60.8562 15.02C61.2962 15.02 61.5962 15.09 61.7562 15.23C61.9362 15.37 62.0262 15.58 62.0262 15.86C62.0262 16.02 61.9162 16.56 61.6962 17.48C61.4962 18.22 61.3362 18.89 61.2162 19.49C61.0562 20.31 60.9162 21.1 60.7962 21.86C60.6762 22.6 60.6162 23.21 60.6162 23.69C60.6162 24.45 60.8262 24.83 61.2462 24.83C61.5462 24.83 61.9162 24.53 62.3562 23.93C62.8162 23.33 63.2962 22.42 63.7962 21.2C64.3162 19.98 64.8162 18.48 65.2962 16.7C65.4562 16.1 65.6962 15.67 66.0162 15.41C66.3562 15.15 66.8562 15.02 67.5162 15.02C67.9762 15.02 68.2962 15.08 68.4762 15.2C68.6562 15.32 68.7462 15.52 68.7462 15.8C68.7462 16.3 68.4862 18.02 67.9662 20.96L67.1862 25.79C68.7262 24.63 70.2262 23.57 71.6862 22.61C71.9462 22.45 72.1762 22.37 72.3762 22.37ZM59.2362 39.74C59.7362 39.74 60.2962 39.16 60.9162 38C61.5362 36.84 62.1562 34.91 62.7762 32.21C61.2362 33.51 60.1162 34.69 59.4162 35.75C58.7362 36.83 58.3962 37.77 58.3962 38.57C58.3962 38.91 58.4562 39.19 58.5762 39.41C58.7162 39.63 58.9362 39.74 59.2362 39.74ZM82.1116 23.21C82.3716 23.21 82.5716 23.33 82.7116 23.57C82.8716 23.81 82.9516 24.14 82.9516 24.56C82.9516 25.28 82.7816 25.9 82.4416 26.42C81.8816 27.28 81.1416 27.95 80.2216 28.43C79.3216 28.91 78.2416 29.15 76.9816 29.15C75.0616 29.15 73.5716 28.58 72.5116 27.44C71.4516 26.28 70.9216 24.72 70.9216 22.76C70.9216 21.38 71.2116 20.1 71.7916 18.92C72.3716 17.72 73.1716 16.77 74.1916 16.07C75.2316 15.37 76.4016 15.02 77.7016 15.02C78.8616 15.02 79.7916 15.37 80.4916 16.07C81.1916 16.75 81.5416 17.68 81.5416 18.86C81.5416 20.24 81.0416 21.43 80.0416 22.43C79.0616 23.41 77.3816 24.19 75.0016 24.77C75.4816 25.69 76.2916 26.15 77.4316 26.15C78.2516 26.15 78.9216 25.96 79.4416 25.58C79.9816 25.2 80.6016 24.56 81.3016 23.66C81.5416 23.36 81.8116 23.21 82.1116 23.21ZM77.1916 17.96C76.4516 17.96 75.8216 18.39 75.3016 19.25C74.8016 20.11 74.5516 21.15 74.5516 22.37V22.43C75.7316 22.15 76.6616 21.73 77.3416 21.17C78.0216 20.61 78.3616 19.96 78.3616 19.22C78.3616 18.84 78.2516 18.54 78.0316 18.32C77.8316 18.08 77.5516 17.96 77.1916 17.96Z" fill="url(#paint0_linear_109_17)" style="mix-blend-mode:multiply"/>
<defs>
<linearGradient id="paint0_linear_109_17" x1="41.5" y1="-10" x2="41.5" y2="43" gradientUnits="userSpaceOnUse">
<stop stop-color="#3AA8E9"/>
<stop offset="0.508434" stop-color="#79C9EF" stop-opacity="0.7"/>
<stop offset="1" stop-color="#5EB8E9"/>
</linearGradient>
</defs>
</svg>
